<svg id="visual" viewBox="0 0 900 300" width="900" height="300" xmlns="http://www.w3.org/2000/svg" xmlns:xlink="http://www.w3.org/1999/xlink" version="1.1"><rect x="0" y="0" width="900" height="300" fill="#303030"></rect><path d="M0 168L6.5 168.2C13 168.3 26 168.7 39 167C52 165.3 65 161.7 78 158.2C91 154.7 104 151.3 117.2 151.5C130.3 151.7 143.7 155.3 156.8 159C170 162.7 183 166.3 196 164.5C209 162.7 222 155.3 235 150.8C248 146.3 261 144.7 274 145.2C287 145.7 300 148.3 313 150.7C326 153 339 155 352 153.7C365 152.3 378 147.7 391 146.7C404 145.7 417 148.3 430.2 152.7C443.3 157 456.7 163 469.8 165.2C483 167.3 496 165.7 509 163C522 160.3 535 156.7 548 157.3C561 158 574 163 587 162.5C600 162 613 156 626 152.2C639 148.3 652 146.7 665 149.2C678 151.7 691 158.3 704 162.2C717 166 730 167 743.2 165C756.3 163 769.7 158 782.8 153C796 148 809 143 822 140.3C835 137.7 848 137.3 861 138.3C874 139.3 887 141.7 893.5 142.8L900 144L900 301L893.5 301C887 301 874 301 861 301C848 301 835 301 822 301C809 301 796 301 782.8 301C769.7 301 756.3 301 743.2 301C730 301 717 301 704 301C691 301 678 301 665 301C652 301 639 301 626 301C613 301 600 301 587 301C574 301 561 301 548 301C535 301 522 301 509 301C496 301 483 301 469.8 301C456.7 301 443.3 301 430.2 301C417 301 404 301 391 301C378 301 365 301 352 301C339 301 326 301 313 301C300 301 287 301 274 301C261 301 248 301 235 301C222 301 209 301 196 301C183 301 170 301 156.8 301C143.7 301 130.3 301 117.2 301C104 301 91 301 78 301C65 301 52 301 39 301C26 301 13 301 6.5 301L0 301Z" fill="#d1f3f4"></path><path d="M0 179L6.5 180.3C13 181.7 26 184.3 39 182.8C52 181.3 65 175.7 78 175.2C91 174.7 104 179.3 117.2 179.7C130.3 180 143.7 176 156.8 174.7C170 173.3 183 174.7 196 175.8C209 177 222 178 235 179.5C248 181 261 183 274 180.5C287 178 300 171 313 170.5C326 170 339 176 352 177.7C365 179.3 378 176.7 391 178.2C404 179.7 417 185.3 430.2 188.7C443.3 192 456.7 193 469.8 192.3C483 191.7 496 189.3 509 186.8C522 184.3 535 181.7 548 180.7C561 179.7 574 180.3 587 177.8C600 175.3 613 169.7 626 169C639 168.3 652 172.7 665 171.5C678 170.3 691 163.7 704 161.7C717 159.7 730 162.3 743.2 167.5C756.3 172.7 769.7 180.3 782.8 182.5C796 184.7 809 181.3 822 179.7C835 178 848 178 861 178C874 178 887 178 893.5 178L900 178L900 301L893.5 301C887 301 874 301 861 301C848 301 835 301 822 301C809 301 796 301 782.8 301C769.7 301 756.3 301 743.2 301C730 301 717 301 704 301C691 301 678 301 665 301C652 301 639 301 626 301C613 301 600 301 587 301C574 301 561 301 548 301C535 301 522 301 509 301C496 301 483 301 469.8 301C456.7 301 443.3 301 430.2 301C417 301 404 301 391 301C378 301 365 301 352 301C339 301 326 301 313 301C300 301 287 301 274 301C261 301 248 301 235 301C222 301 209 301 196 301C183 301 170 301 156.8 301C143.7 301 130.3 301 117.2 301C104 301 91 301 78 301C65 301 52 301 39 301C26 301 13 301 6.5 301L0 301Z" fill="#87cfe3"></path><path d="M0 198L6.5 199C13 200 26 202 39 200.2C52 198.3 65 192.7 78 194.8C91 197 104 207 117.2 212C130.3 217 143.7 217 156.8 212.8C170 208.7 183 200.3 196 195.3C209 190.3 222 188.7 235 192.8C248 197 261 207 274 211.3C287 215.7 300 214.3 313 212.7C326 211 339 209 352 206.8C365 204.7 378 202.3 391 200.8C404 199.3 417 198.7 430.2 195.8C443.3 193 456.7 188 469.8 185.5C483 183 496 183 509 186.7C522 190.3 535 197.7 548 198.5C561 199.3 574 193.7 587 191.7C600 189.7 613 191.3 626 193.8C639 196.3 652 199.7 665 202.3C678 205 691 207 704 209.3C717 211.7 730 214.3 743.2 210C756.3 205.7 769.7 194.3 782.8 194.3C796 194.3 809 205.7 822 205.8C835 206 848 195 861 193.7C874 192.3 887 200.7 893.5 204.8L900 209L900 301L893.5 301C887 301 874 301 861 301C848 301 835 301 822 301C809 301 796 301 782.8 301C769.7 301 756.3 301 743.2 301C730 301 717 301 704 301C691 301 678 301 665 301C652 301 639 301 626 301C613 301 600 301 587 301C574 301 561 301 548 301C535 301 522 301 509 301C496 301 483 301 469.8 301C456.7 301 443.3 301 430.2 301C417 301 404 301 391 301C378 301 365 301 352 301C339 301 326 301 313 301C300 301 287 301 274 301C261 301 248 301 235 301C222 301 209 301 196 301C183 301 170 301 156.8 301C143.7 301 130.3 301 117.2 301C104 301 91 301 78 301C65 301 52 301 39 301C26 301 13 301 6.5 301L0 301Z" fill="#3aa8da"></path><path d="M0 229L6.5 227.2C13 225.3 26 221.7 39 221.2C52 220.7 65 223.3 78 227.2C91 231 104 236 117.2 234.7C130.3 233.3 143.7 225.7 156.8 222.2C170 218.7 183 219.3 196 220.5C209 221.7 222 223.3 235 226.7C248 230 261 235 274 233C287 231 300 222 313 217.8C326 213.7 339 214.3 352 215C365 215.7 378 216.3 391 219C404 221.7 417 226.3 430.2 227.7C443.3 229 456.7 227 469.8 227.7C483 228.3 496 231.7 509 231.8C522 232 535 229 548 226.8C561 224.7 574 223.3 587 225.5C600 227.7 613 233.3 626 234.8C639 236.3 652 233.7 665 232C678 230.3 691 229.7 704 226.2C717 222.7 730 216.3 743.2 217.3C756.3 218.3 769.7 226.7 782.8 231C796 235.3 809 235.7 822 233.2C835 230.7 848 225.3 861 220.7C874 216 887 212 893.5 210L900 208L900 301L893.5 301C887 301 874 301 861 301C848 301 835 301 822 301C809 301 796 301 782.8 301C769.7 301 756.3 301 743.2 301C730 301 717 301 704 301C691 301 678 301 665 301C652 301 639 301 626 301C613 301 600 301 587 301C574 301 561 301 548 301C535 301 522 301 509 301C496 301 483 301 469.8 301C456.7 301 443.3 301 430.2 301C417 301 404 301 391 301C378 301 365 301 352 301C339 301 326 301 313 301C300 301 287 301 274 301C261 301 248 301 235 301C222 301 209 301 196 301C183 301 170 301 156.8 301C143.7 301 130.3 301 117.2 301C104 301 91 301 78 301C65 301 52 301 39 301C26 301 13 301 6.5 301L0 301Z" fill="#007dce"></path><path d="M0 243L6.5 245C13 247 26 251 39 250.3C52 249.7 65 244.3 78 243.2C91 242 104 245 117.2 249C130.3 253 143.7 258 156.8 255.7C170 253.3 183 243.7 196 242.3C209 241 222 248 235 248.7C248 249.3 261 243.7 274 240.5C287 237.3 300 236.7 313 239C326 241.3 339 246.7 352 249C365 251.3 378 250.7 391 251.2C404 251.7 417 253.3 430.2 252.3C443.3 251.3 456.7 247.7 469.8 248.5C483 249.3 496 254.7 509 254C522 253.3 535 246.7 548 247.2C561 247.7 574 255.3 587 257.2C600 259 613 255 626 250.2C639 245.3 652 239.7 665 237.7C678 235.7 691 237.3 704 241C717 244.7 730 250.3 743.2 251.5C756.3 252.7 769.7 249.3 782.8 249.2C796 249 809 252 822 252.7C835 253.3 848 251.7 861 249.8C874 248 887 246 893.5 245L900 244L900 301L893.5 301C887 301 874 301 861 301C848 301 835 301 822 301C809 301 796 301 782.8 301C769.7 301 756.3 301 743.2 301C730 301 717 301 704 301C691 301 678 301 665 301C652 301 639 301 626 301C613 301 600 301 587 301C574 301 561 301 548 301C535 301 522 301 509 301C496 301 483 301 469.8 301C456.7 301 443.3 301 430.2 301C417 301 404 301 391 301C378 301 365 301 352 301C339 301 326 301 313 301C300 301 287 301 274 301C261 301 248 301 235 301C222 301 209 301 196 301C183 301 170 301 156.8 301C143.7 301 130.3 301 117.2 301C104 301 91 301 78 301C65 301 52 301 39 301C26 301 13 301 6.5 301L0 301Z" fill="#174eb5"></path><path d="M0 280L6.5 276.8C13 273.7 26 267.3 39 265.5C52 263.7 65 266.3 78 267C91 267.7 104 266.3 117.2 266.5C130.3 266.7 143.7 268.3 156.8 270.3C170 272.3 183 274.7 196 276.8C209 279 222 281 235 278.3C248 275.7 261 268.3 274 264.5C287 260.7 300 260.3 313 264.3C326 268.3 339 276.7 352 278.3C365 280 378 275 391 273.7C404 272.3 417 274.7 430.2 273.8C443.3 273 456.7 269 469.8 268.8C483 268.7 496 272.3 509 273.7C522 275 535 274 548 274.5C561 275 574 277 587 276.5C600 276 613 273 626 270.5C639 268 652 266 665 269C678 272 691 280 704 283C717 286 730 284 743.2 282C756.3 280 769.7 278 782.8 277.7C796 277.3 809 278.7 822 277.3C835 276 848 272 861 271.7C874 271.3 887 274.7 893.5 276.3L900 278L900 301L893.5 301C887 301 874 301 861 301C848 301 835 301 822 301C809 301 796 301 782.8 301C769.7 301 756.3 301 743.2 301C730 301 717 301 704 301C691 301 678 301 665 301C652 301 639 301 626 301C613 301 600 301 587 301C574 301 561 301 548 301C535 301 522 301 509 301C496 301 483 301 469.8 301C456.7 301 443.3 301 430.2 301C417 301 404 301 391 301C378 301 365 301 352 301C339 301 326 301 313 301C300 301 287 301 274 301C261 301 248 301 235 301C222 301 209 301 196 301C183 301 170 301 156.8 301C143.7 301 130.3 301 117.2 301C104 301 91 301 78 301C65 301 52 301 39 301C26 301 13 301 6.5 301L0 301Z" fill="#4a0489"></path></svg>