<svg id="visual" viewBox="0 0 900 50" width="900" height="50" xmlns="http://www.w3.org/2000/svg" xmlns:xlink="http://www.w3.org/1999/xlink" version="1.1"><rect x="0" y="0" width="900" height="50" fill="#303030"></rect><path d="M0 12L6.5 12.2C13 12.3 26 12.7 39 13.8C52 15 65 17 78 15.7C91 14.3 104 9.7 117.2 7.5C130.3 5.3 143.7 5.7 156.8 9C170 12.3 183 18.7 196 21.5C209 24.3 222 23.7 235 23.7C248 23.7 261 24.3 274 22.7C287 21 300 17 313 16.7C326 16.3 339 19.7 352 18.3C365 17 378 11 391 9.8C404 8.7 417 12.3 430.2 15.7C443.3 19 456.7 22 469.8 22.8C483 23.7 496 22.3 509 20.2C522 18 535 15 548 14.7C561 14.3 574 16.7 587 15.5C600 14.3 613 9.7 626 11.3C639 13 652 21 665 24C678 27 691 25 704 24.7C717 24.3 730 25.7 743.2 23.3C756.3 21 769.7 15 782.8 13.7C796 12.3 809 15.7 822 15.5C835 15.3 848 11.7 861 10.8C874 10 887 12 893.5 13L900 14L900 51L893.5 51C887 51 874 51 861 51C848 51 835 51 822 51C809 51 796 51 782.8 51C769.7 51 756.3 51 743.2 51C730 51 717 51 704 51C691 51 678 51 665 51C652 51 639 51 626 51C613 51 600 51 587 51C574 51 561 51 548 51C535 51 522 51 509 51C496 51 483 51 469.8 51C456.7 51 443.3 51 430.2 51C417 51 404 51 391 51C378 51 365 51 352 51C339 51 326 51 313 51C300 51 287 51 274 51C261 51 248 51 235 51C222 51 209 51 196 51C183 51 170 51 156.8 51C143.7 51 130.3 51 117.2 51C104 51 91 51 78 51C65 51 52 51 39 51C26 51 13 51 6.5 51L0 51Z" fill="#d1f3f4"></path><path d="M0 22L6.5 21.7C13 21.3 26 20.7 39 21.7C52 22.7 65 25.3 78 27.3C91 29.3 104 30.7 117.2 28.5C130.3 26.3 143.7 20.7 156.8 20.8C170 21 183 27 196 27.3C209 27.7 222 22.3 235 20.8C248 19.3 261 21.7 274 22.8C287 24 300 24 313 22C326 20 339 16 352 13.8C365 11.7 378 11.3 391 13.3C404 15.3 417 19.7 430.2 20.5C443.3 21.3 456.7 18.7 469.8 19.3C483 20 496 24 509 23.8C522 23.7 535 19.3 548 20.2C561 21 574 27 587 29.3C600 31.7 613 30.3 626 26.5C639 22.7 652 16.3 665 16.8C678 17.3 691 24.7 704 25.2C717 25.7 730 19.3 743.2 19.5C756.3 19.7 769.7 26.3 782.8 26.3C796 26.3 809 19.7 822 16.5C835 13.3 848 13.7 861 14.2C874 14.7 887 15.3 893.5 15.7L900 16L900 51L893.5 51C887 51 874 51 861 51C848 51 835 51 822 51C809 51 796 51 782.8 51C769.7 51 756.3 51 743.2 51C730 51 717 51 704 51C691 51 678 51 665 51C652 51 639 51 626 51C613 51 600 51 587 51C574 51 561 51 548 51C535 51 522 51 509 51C496 51 483 51 469.8 51C456.7 51 443.3 51 430.2 51C417 51 404 51 391 51C378 51 365 51 352 51C339 51 326 51 313 51C300 51 287 51 274 51C261 51 248 51 235 51C222 51 209 51 196 51C183 51 170 51 156.8 51C143.7 51 130.3 51 117.2 51C104 51 91 51 78 51C65 51 52 51 39 51C26 51 13 51 6.5 51L0 51Z" fill="#74c6e0"></path><path d="M0 27L6.5 27.2C13 27.3 26 27.7 39 27.5C52 27.3 65 26.7 78 25C91 23.3 104 20.7 117.2 20C130.3 19.3 143.7 20.7 156.8 21.3C170 22 183 22 196 21.5C209 21 222 20 235 22C248 24 261 29 274 28.8C287 28.7 300 23.3 313 23.8C326 24.3 339 30.7 352 33.7C365 36.7 378 36.3 391 34.5C404 32.7 417 29.3 430.2 28C443.3 26.7 456.7 27.3 469.8 26.2C483 25 496 22 509 23.2C522 24.3 535 29.7 548 32.3C561 35 574 35 587 32.7C600 30.3 613 25.7 626 26C639 26.3 652 31.7 665 31.7C678 31.7 691 26.3 704 26.2C717 26 730 31 743.2 32.2C756.3 33.3 769.7 30.7 782.8 28.8C796 27 809 26 822 24.7C835 23.3 848 21.7 861 21.7C874 21.7 887 23.3 893.5 24.2L900 25L900 51L893.5 51C887 51 874 51 861 51C848 51 835 51 822 51C809 51 796 51 782.8 51C769.7 51 756.3 51 743.2 51C730 51 717 51 704 51C691 51 678 51 665 51C652 51 639 51 626 51C613 51 600 51 587 51C574 51 561 51 548 51C535 51 522 51 509 51C496 51 483 51 469.8 51C456.7 51 443.3 51 430.2 51C417 51 404 51 391 51C378 51 365 51 352 51C339 51 326 51 313 51C300 51 287 51 274 51C261 51 248 51 235 51C222 51 209 51 196 51C183 51 170 51 156.8 51C143.7 51 130.3 51 117.2 51C104 51 91 51 78 51C65 51 52 51 39 51C26 51 13 51 6.5 51L0 51Z" fill="#0093d5"></path><path d="M0 38L6.5 38.5C13 39 26 40 39 39.2C52 38.3 65 35.7 78 33.3C91 31 104 29 117.2 29.7C130.3 30.3 143.7 33.7 156.8 36.2C170 38.7 183 40.3 196 41C209 41.7 222 41.3 235 40.5C248 39.7 261 38.3 274 36.8C287 35.3 300 33.7 313 34C326 34.3 339 36.7 352 36.5C365 36.3 378 33.7 391 32.2C404 30.7 417 30.3 430.2 30.8C443.3 31.3 456.7 32.7 469.8 32.3C483 32 496 30 509 28.8C522 27.7 535 27.3 548 27.2C561 27 574 27 587 28C600 29 613 31 626 33.3C639 35.7 652 38.3 665 39.7C678 41 691 41 704 41C717 41 730 41 743.2 39.7C756.3 38.3 769.7 35.7 782.8 34.3C796 33 809 33 822 33.7C835 34.3 848 35.7 861 37C874 38.3 887 39.7 893.5 40.3L900 41L900 51L893.5 51C887 51 874 51 861 51C848 51 835 51 822 51C809 51 796 51 782.8 51C769.7 51 756.3 51 743.2 51C730 51 717 51 704 51C691 51 678 51 665 51C652 51 639 51 626 51C613 51 600 51 587 51C574 51 561 51 548 51C535 51 522 51 509 51C496 51 483 51 469.8 51C456.7 51 443.3 51 430.2 51C417 51 404 51 391 51C378 51 365 51 352 51C339 51 326 51 313 51C300 51 287 51 274 51C261 51 248 51 235 51C222 51 209 51 196 51C183 51 170 51 156.8 51C143.7 51 130.3 51 117.2 51C104 51 91 51 78 51C65 51 52 51 39 51C26 51 13 51 6.5 51L0 51Z" fill="#005abd"></path><path d="M0 47L6.5 45C13 43 26 39 39 38C52 37 65 39 78 40.7C91 42.3 104 43.7 117.2 43.2C130.3 42.7 143.7 40.3 156.8 39.7C170 39 183 40 196 40.8C209 41.7 222 42.3 235 42.8C248 43.3 261 43.7 274 43C287 42.3 300 40.7 313 40.7C326 40.7 339 42.3 352 42.2C365 42 378 40 391 39C404 38 417 38 430.2 37.5C443.3 37 456.7 36 469.8 37.3C483 38.7 496 42.3 509 43.5C522 44.7 535 43.3 548 42C561 40.7 574 39.3 587 39.3C600 39.3 613 40.7 626 41.8C639 43 652 44 665 43.3C678 42.7 691 40.3 704 38.5C717 36.7 730 35.3 743.2 34.7C756.3 34 769.7 34 782.8 35.5C796 37 809 40 822 41.7C835 43.3 848 43.7 861 43.3C874 43 887 42 893.5 41.5L900 41L900 51L893.5 51C887 51 874 51 861 51C848 51 835 51 822 51C809 51 796 51 782.8 51C769.7 51 756.3 51 743.2 51C730 51 717 51 704 51C691 51 678 51 665 51C652 51 639 51 626 51C613 51 600 51 587 51C574 51 561 51 548 51C535 51 522 51 509 51C496 51 483 51 469.8 51C456.7 51 443.3 51 430.2 51C417 51 404 51 391 51C378 51 365 51 352 51C339 51 326 51 313 51C300 51 287 51 274 51C261 51 248 51 235 51C222 51 209 51 196 51C183 51 170 51 156.8 51C143.7 51 130.3 51 117.2 51C104 51 91 51 78 51C65 51 52 51 39 51C26 51 13 51 6.5 51L0 51Z" fill="#4a0489"></path></svg>