<svg id="visual" viewBox="0 0 900 300" width="900" height="300" xmlns="http://www.w3.org/2000/svg" xmlns:xlink="http://www.w3.org/1999/xlink" version="1.1"><rect x="0" y="0" width="900" height="300" fill="#303030"></rect><path d="M0 127L6.5 123.8C13 120.7 26 114.3 39 110.2C52 106 65 104 78 106.5C91 109 104 116 117.2 117.8C130.3 119.7 143.7 116.3 156.8 113C170 109.7 183 106.3 196 106.7C209 107 222 111 235 114.3C248 117.7 261 120.3 274 118.7C287 117 300 111 313 110.5C326 110 339 115 352 118.3C365 121.7 378 123.3 391 122.2C404 121 417 117 430.2 116C443.3 115 456.7 117 469.8 116.2C483 115.3 496 111.7 509 113.7C522 115.7 535 123.3 548 124.8C561 126.3 574 121.7 587 119.5C600 117.3 613 117.7 626 116.8C639 116 652 114 665 112.7C678 111.3 691 110.7 704 114.7C717 118.7 730 127.3 743.2 130.8C756.3 134.3 769.7 132.7 782.8 128.5C796 124.3 809 117.7 822 115.3C835 113 848 115 861 116.2C874 117.3 887 117.7 893.5 117.8L900 118L900 0L893.5 0C887 0 874 0 861 0C848 0 835 0 822 0C809 0 796 0 782.8 0C769.7 0 756.3 0 743.2 0C730 0 717 0 704 0C691 0 678 0 665 0C652 0 639 0 626 0C613 0 600 0 587 0C574 0 561 0 548 0C535 0 522 0 509 0C496 0 483 0 469.8 0C456.7 0 443.3 0 430.2 0C417 0 404 0 391 0C378 0 365 0 352 0C339 0 326 0 313 0C300 0 287 0 274 0C261 0 248 0 235 0C222 0 209 0 196 0C183 0 170 0 156.8 0C143.7 0 130.3 0 117.2 0C104 0 91 0 78 0C65 0 52 0 39 0C26 0 13 0 6.5 0L0 0Z" fill="#d1f3f4"></path><path d="M0 90L6.5 92.7C13 95.3 26 100.7 39 102.8C52 105 65 104 78 105C91 106 104 109 117.2 108.7C130.3 108.3 143.7 104.7 156.8 100.8C170 97 183 93 196 89.3C209 85.7 222 82.3 235 80.8C248 79.3 261 79.7 274 82.3C287 85 300 90 313 93.5C326 97 339 99 352 98.7C365 98.3 378 95.7 391 95.2C404 94.7 417 96.3 430.2 99.3C443.3 102.3 456.7 106.7 469.8 105.5C483 104.3 496 97.7 509 94.7C522 91.7 535 92.3 548 91.3C561 90.3 574 87.7 587 86.5C600 85.3 613 85.7 626 89.3C639 93 652 100 665 104C678 108 691 109 704 104.5C717 100 730 90 743.2 87.2C756.3 84.3 769.7 88.7 782.8 91.8C796 95 809 97 822 95.5C835 94 848 89 861 88.3C874 87.7 887 91.3 893.5 93.2L900 95L900 0L893.5 0C887 0 874 0 861 0C848 0 835 0 822 0C809 0 796 0 782.8 0C769.7 0 756.3 0 743.2 0C730 0 717 0 704 0C691 0 678 0 665 0C652 0 639 0 626 0C613 0 600 0 587 0C574 0 561 0 548 0C535 0 522 0 509 0C496 0 483 0 469.8 0C456.7 0 443.3 0 430.2 0C417 0 404 0 391 0C378 0 365 0 352 0C339 0 326 0 313 0C300 0 287 0 274 0C261 0 248 0 235 0C222 0 209 0 196 0C183 0 170 0 156.8 0C143.7 0 130.3 0 117.2 0C104 0 91 0 78 0C65 0 52 0 39 0C26 0 13 0 6.5 0L0 0Z" fill="#74c6e0"></path><path d="M0 67L6.5 69.8C13 72.7 26 78.3 39 78.5C52 78.7 65 73.3 78 69.2C91 65 104 62 117.2 62.7C130.3 63.3 143.7 67.7 156.8 71.3C170 75 183 78 196 78.8C209 79.7 222 78.3 235 77C248 75.7 261 74.3 274 74.8C287 75.3 300 77.7 313 76.7C326 75.7 339 71.3 352 69C365 66.7 378 66.3 391 65.3C404 64.3 417 62.7 430.2 63.8C443.3 65 456.7 69 469.8 70C483 71 496 69 509 71.3C522 73.7 535 80.3 548 78.7C561 77 574 67 587 66.2C600 65.3 613 73.7 626 74.3C639 75 652 68 665 67.7C678 67.3 691 73.7 704 75.8C717 78 730 76 743.2 74.3C756.3 72.7 769.7 71.3 782.8 70.7C796 70 809 70 822 69.5C835 69 848 68 861 70.5C874 73 887 79 893.5 82L900 85L900 0L893.5 0C887 0 874 0 861 0C848 0 835 0 822 0C809 0 796 0 782.8 0C769.7 0 756.3 0 743.2 0C730 0 717 0 704 0C691 0 678 0 665 0C652 0 639 0 626 0C613 0 600 0 587 0C574 0 561 0 548 0C535 0 522 0 509 0C496 0 483 0 469.8 0C456.7 0 443.3 0 430.2 0C417 0 404 0 391 0C378 0 365 0 352 0C339 0 326 0 313 0C300 0 287 0 274 0C261 0 248 0 235 0C222 0 209 0 196 0C183 0 170 0 156.8 0C143.7 0 130.3 0 117.2 0C104 0 91 0 78 0C65 0 52 0 39 0C26 0 13 0 6.5 0L0 0Z" fill="#0093d5"></path><path d="M0 33L6.5 32.8C13 32.7 26 32.3 39 34C52 35.7 65 39.3 78 44.3C91 49.3 104 55.7 117.2 56.5C130.3 57.3 143.7 52.7 156.8 50.7C170 48.7 183 49.3 196 49C209 48.7 222 47.3 235 45.2C248 43 261 40 274 38.2C287 36.3 300 35.7 313 35.8C326 36 339 37 352 41.3C365 45.7 378 53.3 391 55.8C404 58.3 417 55.7 430.2 50.8C443.3 46 456.7 39 469.8 37.2C483 35.3 496 38.7 509 41.7C522 44.7 535 47.3 548 48.8C561 50.3 574 50.7 587 49.7C600 48.7 613 46.3 626 45.7C639 45 652 46 665 45.7C678 45.3 691 43.7 704 41.7C717 39.7 730 37.3 743.2 38.2C756.3 39 769.7 43 782.8 46.7C796 50.3 809 53.7 822 53.8C835 54 848 51 861 47.3C874 43.7 887 39.3 893.5 37.2L900 35L900 0L893.5 0C887 0 874 0 861 0C848 0 835 0 822 0C809 0 796 0 782.8 0C769.7 0 756.3 0 743.2 0C730 0 717 0 704 0C691 0 678 0 665 0C652 0 639 0 626 0C613 0 600 0 587 0C574 0 561 0 548 0C535 0 522 0 509 0C496 0 483 0 469.8 0C456.7 0 443.3 0 430.2 0C417 0 404 0 391 0C378 0 365 0 352 0C339 0 326 0 313 0C300 0 287 0 274 0C261 0 248 0 235 0C222 0 209 0 196 0C183 0 170 0 156.8 0C143.7 0 130.3 0 117.2 0C104 0 91 0 78 0C65 0 52 0 39 0C26 0 13 0 6.5 0L0 0Z" fill="#005abd"></path><path d="M0 38L6.5 35.3C13 32.7 26 27.3 39 25.5C52 23.7 65 25.3 78 23.8C91 22.3 104 17.7 117.2 16.5C130.3 15.3 143.7 17.7 156.8 20C170 22.3 183 24.7 196 27.3C209 30 222 33 235 34.5C248 36 261 36 274 32.2C287 28.3 300 20.7 313 17.3C326 14 339 15 352 16.3C365 17.7 378 19.3 391 22.8C404 26.3 417 31.7 430.2 31.3C443.3 31 456.7 25 469.8 21C483 17 496 15 509 16.8C522 18.7 535 24.3 548 24.2C561 24 574 18 587 16.3C600 14.7 613 17.3 626 20.3C639 23.3 652 26.7 665 25C678 23.3 691 16.7 704 15.7C717 14.7 730 19.3 743.2 21.5C756.3 23.7 769.7 23.3 782.8 24.3C796 25.3 809 27.7 822 26.8C835 26 848 22 861 23.2C874 24.3 887 30.7 893.5 33.8L900 37L900 0L893.5 0C887 0 874 0 861 0C848 0 835 0 822 0C809 0 796 0 782.8 0C769.7 0 756.3 0 743.2 0C730 0 717 0 704 0C691 0 678 0 665 0C652 0 639 0 626 0C613 0 600 0 587 0C574 0 561 0 548 0C535 0 522 0 509 0C496 0 483 0 469.8 0C456.7 0 443.3 0 430.2 0C417 0 404 0 391 0C378 0 365 0 352 0C339 0 326 0 313 0C300 0 287 0 274 0C261 0 248 0 235 0C222 0 209 0 196 0C183 0 170 0 156.8 0C143.7 0 130.3 0 117.2 0C104 0 91 0 78 0C65 0 52 0 39 0C26 0 13 0 6.5 0L0 0Z" fill="#4a0489"></path></svg>