<svg id="visual" viewBox="0 0 960 300" width="960" height="300" xmlns="http://www.w3.org/2000/svg" xmlns:xlink="http://www.w3.org/1999/xlink" version="1.1"><rect x="0" y="0" width="960" height="300" fill="#303030"></rect><path d="M0 155L13.3 154.3C26.7 153.7 53.3 152.3 80 154.3C106.7 156.3 133.3 161.7 160 162.7C186.7 163.7 213.3 160.3 240 161C266.7 161.7 293.3 166.3 320 170.5C346.7 174.7 373.3 178.3 400 175C426.7 171.7 453.3 161.3 480 158C506.7 154.7 533.3 158.3 560 163.5C586.7 168.7 613.3 175.3 640 182C666.7 188.7 693.3 195.3 720 193.7C746.7 192 773.3 182 800 174.5C826.7 167 853.3 162 880 165.8C906.7 169.7 933.3 182.3 946.7 188.7L960 195L960 301L946.7 301C933.3 301 906.7 301 880 301C853.3 301 826.7 301 800 301C773.3 301 746.7 301 720 301C693.3 301 666.7 301 640 301C613.3 301 586.7 301 560 301C533.3 301 506.7 301 480 301C453.3 301 426.7 301 400 301C373.3 301 346.7 301 320 301C293.3 301 266.7 301 240 301C213.3 301 186.7 301 160 301C133.3 301 106.7 301 80 301C53.3 301 26.7 301 13.3 301L0 301Z" fill="#ff6f00"></path><path d="M0 207L13.3 204.5C26.7 202 53.3 197 80 192.7C106.7 188.3 133.3 184.7 160 185.5C186.7 186.3 213.3 191.7 240 194.5C266.7 197.3 293.3 197.7 320 197.2C346.7 196.7 373.3 195.3 400 192.3C426.7 189.3 453.3 184.7 480 184.3C506.7 184 533.3 188 560 188.7C586.7 189.3 613.3 186.7 640 190.2C666.7 193.7 693.3 203.3 720 205.8C746.7 208.3 773.3 203.7 800 201.7C826.7 199.7 853.3 200.3 880 200C906.7 199.7 933.3 198.3 946.7 197.7L960 197L960 301L946.7 301C933.3 301 906.7 301 880 301C853.3 301 826.7 301 800 301C773.3 301 746.7 301 720 301C693.3 301 666.7 301 640 301C613.3 301 586.7 301 560 301C533.3 301 506.7 301 480 301C453.3 301 426.7 301 400 301C373.3 301 346.7 301 320 301C293.3 301 266.7 301 240 301C213.3 301 186.7 301 160 301C133.3 301 106.7 301 80 301C53.3 301 26.7 301 13.3 301L0 301Z" fill="#ff443f"></path><path d="M0 236L13.3 233.8C26.7 231.7 53.3 227.3 80 227.2C106.7 227 133.3 231 160 227.2C186.7 223.3 213.3 211.7 240 204.5C266.7 197.3 293.3 194.7 320 199.2C346.7 203.7 373.3 215.3 400 218.8C426.7 222.3 453.3 217.7 480 213.8C506.7 210 533.3 207 560 211.2C586.7 215.3 613.3 226.7 640 231.5C666.7 236.3 693.3 234.7 720 230.7C746.7 226.7 773.3 220.3 800 213.7C826.7 207 853.3 200 880 198.3C906.7 196.7 933.3 200.3 946.7 202.2L960 204L960 301L946.7 301C933.3 301 906.7 301 880 301C853.3 301 826.7 301 800 301C773.3 301 746.7 301 720 301C693.3 301 666.7 301 640 301C613.3 301 586.7 301 560 301C533.3 301 506.7 301 480 301C453.3 301 426.7 301 400 301C373.3 301 346.7 301 320 301C293.3 301 266.7 301 240 301C213.3 301 186.7 301 160 301C133.3 301 106.7 301 80 301C53.3 301 26.7 301 13.3 301L0 301Z" fill="#f81665"></path><path d="M0 224L13.3 226.7C26.7 229.3 53.3 234.7 80 237.5C106.7 240.3 133.3 240.7 160 238.5C186.7 236.3 213.3 231.7 240 228.3C266.7 225 293.3 223 320 225.8C346.7 228.7 373.3 236.3 400 239.2C426.7 242 453.3 240 480 237.5C506.7 235 533.3 232 560 230.7C586.7 229.3 613.3 229.7 640 231.7C666.7 233.7 693.3 237.3 720 239.5C746.7 241.7 773.3 242.3 800 244.7C826.7 247 853.3 251 880 252.8C906.7 254.7 933.3 254.3 946.7 254.2L960 254L960 301L946.7 301C933.3 301 906.7 301 880 301C853.3 301 826.7 301 800 301C773.3 301 746.7 301 720 301C693.3 301 666.7 301 640 301C613.3 301 586.7 301 560 301C533.3 301 506.7 301 480 301C453.3 301 426.7 301 400 301C373.3 301 346.7 301 320 301C293.3 301 266.7 301 240 301C213.3 301 186.7 301 160 301C133.3 301 106.7 301 80 301C53.3 301 26.7 301 13.3 301L0 301Z" fill="#dc0088"></path><path d="M0 268L13.3 268.7C26.7 269.3 53.3 270.7 80 271.7C106.7 272.7 133.3 273.3 160 270.2C186.7 267 213.3 260 240 258.8C266.7 257.7 293.3 262.3 320 266.7C346.7 271 373.3 275 400 272.5C426.7 270 453.3 261 480 255.2C506.7 249.3 533.3 246.7 560 246.5C586.7 246.3 613.3 248.7 640 254.2C666.7 259.7 693.3 268.3 720 272.3C746.7 276.3 773.3 275.7 800 270.5C826.7 265.3 853.3 255.7 880 253.3C906.7 251 933.3 256 946.7 258.5L960 261L960 301L946.7 301C933.3 301 906.7 301 880 301C853.3 301 826.7 301 800 301C773.3 301 746.7 301 720 301C693.3 301 666.7 301 640 301C613.3 301 586.7 301 560 301C533.3 301 506.7 301 480 301C453.3 301 426.7 301 400 301C373.3 301 346.7 301 320 301C293.3 301 266.7 301 240 301C213.3 301 186.7 301 160 301C133.3 301 106.7 301 80 301C53.3 301 26.7 301 13.3 301L0 301Z" fill="#ad21a5"></path><path d="M0 286L13.3 288C26.7 290 53.3 294 80 295.3C106.7 296.7 133.3 295.3 160 293.7C186.7 292 213.3 290 240 289.3C266.7 288.7 293.3 289.3 320 288.7C346.7 288 373.3 286 400 286.7C426.7 287.3 453.3 290.7 480 290C506.7 289.3 533.3 284.7 560 282.7C586.7 280.7 613.3 281.3 640 283.8C666.7 286.3 693.3 290.7 720 291C746.7 291.3 773.3 287.7 800 288.3C826.7 289 853.3 294 880 293.5C906.7 293 933.3 287 946.7 284L960 281L960 301L946.7 301C933.3 301 906.7 301 880 301C853.3 301 826.7 301 800 301C773.3 301 746.7 301 720 301C693.3 301 666.7 301 640 301C613.3 301 586.7 301 560 301C533.3 301 506.7 301 480 301C453.3 301 426.7 301 400 301C373.3 301 346.7 301 320 301C293.3 301 266.7 301 240 301C213.3 301 186.7 301 160 301C133.3 301 106.7 301 80 301C53.3 301 26.7 301 13.3 301L0 301Z" fill="#673ab7"></path></svg>