<svg id="visual" viewBox="0 0 960 300" width="960" height="300" xmlns="http://www.w3.org/2000/svg" xmlns:xlink="http://www.w3.org/1999/xlink" version="1.1"><rect x="0" y="0" width="960" height="300" fill="#303030"></rect><path d="M0 208L8.8 207.7C17.7 207.3 35.3 206.7 53.2 206.7C71 206.7 89 207.3 106.8 204.7C124.7 202 142.3 196 160 198.2C177.7 200.3 195.3 210.7 213.2 215C231 219.3 249 217.7 266.8 216.3C284.7 215 302.3 214 320 207.5C337.7 201 355.3 189 373.2 186C391 183 409 189 426.8 193.8C444.7 198.7 462.3 202.3 480 206.3C497.7 210.3 515.3 214.7 533.2 214C551 213.3 569 207.7 586.8 204.7C604.7 201.7 622.3 201.3 640 197C657.7 192.7 675.3 184.3 693.2 181.8C711 179.3 729 182.7 746.8 184C764.7 185.3 782.3 184.7 800 190.2C817.7 195.7 835.3 207.3 853.2 209C871 210.7 889 202.3 906.8 202.5C924.7 202.7 942.3 211.3 951.2 215.7L960 220L960 301L951.2 301C942.3 301 924.7 301 906.8 301C889 301 871 301 853.2 301C835.3 301 817.7 301 800 301C782.3 301 764.7 301 746.8 301C729 301 711 301 693.2 301C675.3 301 657.7 301 640 301C622.3 301 604.7 301 586.8 301C569 301 551 301 533.2 301C515.3 301 497.7 301 480 301C462.3 301 444.7 301 426.8 301C409 301 391 301 373.2 301C355.3 301 337.7 301 320 301C302.3 301 284.7 301 266.8 301C249 301 231 301 213.2 301C195.3 301 177.7 301 160 301C142.3 301 124.7 301 106.8 301C89 301 71 301 53.2 301C35.3 301 17.7 301 8.8 301L0 301Z" fill="#d1f3f4"></path><path d="M0 211L8.8 213C17.7 215 35.3 219 53.2 221.8C71 224.7 89 226.3 106.8 225.7C124.7 225 142.3 222 160 220.5C177.7 219 195.3 219 213.2 218.3C231 217.7 249 216.3 266.8 216.7C284.7 217 302.3 219 320 218.8C337.7 218.7 355.3 216.3 373.2 212.2C391 208 409 202 426.8 200.3C444.7 198.7 462.3 201.3 480 207.8C497.7 214.3 515.3 224.7 533.2 224.8C551 225 569 215 586.8 208.7C604.7 202.3 622.3 199.7 640 203.2C657.7 206.7 675.3 216.3 693.2 221.5C711 226.7 729 227.3 746.8 228.3C764.7 229.3 782.3 230.7 800 226C817.7 221.3 835.3 210.7 853.2 208.5C871 206.3 889 212.7 906.8 215.8C924.7 219 942.3 219 951.2 219L960 219L960 301L951.2 301C942.3 301 924.7 301 906.8 301C889 301 871 301 853.2 301C835.3 301 817.7 301 800 301C782.3 301 764.7 301 746.8 301C729 301 711 301 693.2 301C675.3 301 657.7 301 640 301C622.3 301 604.7 301 586.8 301C569 301 551 301 533.2 301C515.3 301 497.7 301 480 301C462.3 301 444.7 301 426.8 301C409 301 391 301 373.2 301C355.3 301 337.7 301 320 301C302.3 301 284.7 301 266.8 301C249 301 231 301 213.2 301C195.3 301 177.7 301 160 301C142.3 301 124.7 301 106.8 301C89 301 71 301 53.2 301C35.3 301 17.7 301 8.8 301L0 301Z" fill="#7ed0ea"></path><path d="M0 244L8.8 244.8C17.7 245.7 35.3 247.3 53.2 247.2C71 247 89 245 106.8 244.8C124.7 244.7 142.3 246.3 160 246C177.7 245.7 195.3 243.3 213.2 241C231 238.7 249 236.3 266.8 236.8C284.7 237.3 302.3 240.7 320 242.3C337.7 244 355.3 244 373.2 245C391 246 409 248 426.8 246C444.7 244 462.3 238 480 235.3C497.7 232.7 515.3 233.3 533.2 233.5C551 233.7 569 233.3 586.8 231.5C604.7 229.7 622.3 226.3 640 227.2C657.7 228 675.3 233 693.2 238C711 243 729 248 746.8 249C764.7 250 782.3 247 800 242.5C817.7 238 835.3 232 853.2 231.7C871 231.3 889 236.7 906.8 237C924.7 237.3 942.3 232.7 951.2 230.3L960 228L960 301L951.2 301C942.3 301 924.7 301 906.8 301C889 301 871 301 853.2 301C835.3 301 817.7 301 800 301C782.3 301 764.7 301 746.8 301C729 301 711 301 693.2 301C675.3 301 657.7 301 640 301C622.3 301 604.7 301 586.8 301C569 301 551 301 533.2 301C515.3 301 497.7 301 480 301C462.3 301 444.7 301 426.8 301C409 301 391 301 373.2 301C355.3 301 337.7 301 320 301C302.3 301 284.7 301 266.8 301C249 301 231 301 213.2 301C195.3 301 177.7 301 160 301C142.3 301 124.7 301 106.8 301C89 301 71 301 53.2 301C35.3 301 17.7 301 8.8 301L0 301Z" fill="#26a8e9"></path><path d="M0 244L8.8 245C17.7 246 35.3 248 53.2 252.3C71 256.7 89 263.3 106.8 262.7C124.7 262 142.3 254 160 251C177.7 248 195.3 250 213.2 250.2C231 250.3 249 248.7 266.8 248.5C284.7 248.3 302.3 249.7 320 251.2C337.7 252.7 355.3 254.3 373.2 257.3C391 260.3 409 264.7 426.8 264.3C444.7 264 462.3 259 480 254.2C497.7 249.3 515.3 244.7 533.2 243.3C551 242 569 244 586.8 248.3C604.7 252.7 622.3 259.3 640 261.3C657.7 263.3 675.3 260.7 693.2 256.5C711 252.3 729 246.7 746.8 248.2C764.7 249.7 782.3 258.3 800 258.3C817.7 258.3 835.3 249.7 853.2 249C871 248.3 889 255.7 906.8 257.3C924.7 259 942.3 255 951.2 253L960 251L960 301L951.2 301C942.3 301 924.7 301 906.8 301C889 301 871 301 853.2 301C835.3 301 817.7 301 800 301C782.3 301 764.7 301 746.8 301C729 301 711 301 693.2 301C675.3 301 657.7 301 640 301C622.3 301 604.7 301 586.8 301C569 301 551 301 533.2 301C515.3 301 497.7 301 480 301C462.3 301 444.7 301 426.8 301C409 301 391 301 373.2 301C355.3 301 337.7 301 320 301C302.3 301 284.7 301 266.8 301C249 301 231 301 213.2 301C195.3 301 177.7 301 160 301C142.3 301 124.7 301 106.8 301C89 301 71 301 53.2 301C35.3 301 17.7 301 8.8 301L0 301Z" fill="#2479de"></path><path d="M0 274L8.8 273.7C17.7 273.3 35.3 272.7 53.2 271.5C71 270.3 89 268.7 106.8 270.3C124.7 272 142.3 277 160 280.2C177.7 283.3 195.3 284.7 213.2 285.3C231 286 249 286 266.8 286C284.7 286 302.3 286 320 282.5C337.7 279 355.3 272 373.2 268.3C391 264.7 409 264.3 426.8 267C444.7 269.7 462.3 275.3 480 277C497.7 278.7 515.3 276.3 533.2 276.2C551 276 569 278 586.8 277.2C604.7 276.3 622.3 272.7 640 272.3C657.7 272 675.3 275 693.2 277.2C711 279.3 729 280.7 746.8 278C764.7 275.3 782.3 268.7 800 267.2C817.7 265.7 835.3 269.3 853.2 272.5C871 275.7 889 278.3 906.8 280C924.7 281.7 942.3 282.3 951.2 282.7L960 283L960 301L951.2 301C942.3 301 924.7 301 906.8 301C889 301 871 301 853.2 301C835.3 301 817.7 301 800 301C782.3 301 764.7 301 746.8 301C729 301 711 301 693.2 301C675.3 301 657.7 301 640 301C622.3 301 604.7 301 586.8 301C569 301 551 301 533.2 301C515.3 301 497.7 301 480 301C462.3 301 444.7 301 426.8 301C409 301 391 301 373.2 301C355.3 301 337.7 301 320 301C302.3 301 284.7 301 266.8 301C249 301 231 301 213.2 301C195.3 301 177.7 301 160 301C142.3 301 124.7 301 106.8 301C89 301 71 301 53.2 301C35.3 301 17.7 301 8.8 301L0 301Z" fill="#673ab7"></path></svg>