<svg id="visual" viewBox="0 0 920 300" width="920" height="300" xmlns="http://www.w3.org/2000/svg" xmlns:xlink="http://www.w3.org/1999/xlink" version="1.1"><rect x="0" y="0" width="920" height="300" fill="#303030"></rect><path d="M0 166L7.7 165.5C15.3 165 30.7 164 46 164.8C61.3 165.7 76.7 168.3 92 172.2C107.3 176 122.7 181 138 181.2C153.3 181.3 168.7 176.7 184 172.2C199.3 167.7 214.7 163.3 230 163.7C245.3 164 260.7 169 276 169.8C291.3 170.7 306.7 167.3 322 169C337.3 170.7 352.7 177.3 368 177.3C383.3 177.3 398.7 170.7 414 166.7C429.3 162.7 444.7 161.3 460 165.2C475.3 169 490.7 178 506 177.8C521.3 177.7 536.7 168.3 552 164.3C567.3 160.3 582.7 161.7 598 162.3C613.3 163 628.7 163 644 162.7C659.3 162.3 674.7 161.7 690 164.5C705.3 167.3 720.7 173.7 736 174.8C751.3 176 766.7 172 782 173.3C797.3 174.7 812.7 181.3 828 183C843.3 184.7 858.7 181.3 874 179.2C889.3 177 904.7 176 912.3 175.5L920 175L920 301L912.3 301C904.7 301 889.3 301 874 301C858.7 301 843.3 301 828 301C812.7 301 797.3 301 782 301C766.7 301 751.3 301 736 301C720.7 301 705.3 301 690 301C674.7 301 659.3 301 644 301C628.7 301 613.3 301 598 301C582.7 301 567.3 301 552 301C536.7 301 521.3 301 506 301C490.7 301 475.3 301 460 301C444.7 301 429.3 301 414 301C398.7 301 383.3 301 368 301C352.7 301 337.3 301 322 301C306.7 301 291.3 301 276 301C260.7 301 245.3 301 230 301C214.7 301 199.3 301 184 301C168.7 301 153.3 301 138 301C122.7 301 107.3 301 92 301C76.7 301 61.3 301 46 301C30.7 301 15.3 301 7.7 301L0 301Z" fill="#ff6f00"></path><path d="M0 194L7.7 196.7C15.3 199.3 30.7 204.7 46 203C61.3 201.3 76.7 192.7 92 188.8C107.3 185 122.7 186 138 188C153.3 190 168.7 193 184 194.5C199.3 196 214.7 196 230 199C245.3 202 260.7 208 276 207.5C291.3 207 306.7 200 322 198.8C337.3 197.7 352.7 202.3 368 204.8C383.3 207.3 398.7 207.7 414 205.2C429.3 202.7 444.7 197.3 460 195.8C475.3 194.3 490.7 196.7 506 195.7C521.3 194.7 536.7 190.3 552 189.2C567.3 188 582.7 190 598 190.5C613.3 191 628.7 190 644 191.7C659.3 193.3 674.7 197.7 690 199C705.3 200.3 720.7 198.7 736 200.2C751.3 201.7 766.7 206.3 782 207.5C797.3 208.7 812.7 206.3 828 204.3C843.3 202.3 858.7 200.7 874 201.8C889.3 203 904.7 207 912.3 209L920 211L920 301L912.3 301C904.7 301 889.3 301 874 301C858.7 301 843.3 301 828 301C812.7 301 797.3 301 782 301C766.7 301 751.3 301 736 301C720.7 301 705.3 301 690 301C674.7 301 659.3 301 644 301C628.7 301 613.3 301 598 301C582.7 301 567.3 301 552 301C536.7 301 521.3 301 506 301C490.7 301 475.3 301 460 301C444.7 301 429.3 301 414 301C398.7 301 383.3 301 368 301C352.7 301 337.3 301 322 301C306.7 301 291.3 301 276 301C260.7 301 245.3 301 230 301C214.7 301 199.3 301 184 301C168.7 301 153.3 301 138 301C122.7 301 107.3 301 92 301C76.7 301 61.3 301 46 301C30.7 301 15.3 301 7.7 301L0 301Z" fill="#ff3949"></path><path d="M0 230L7.7 229C15.3 228 30.7 226 46 225.2C61.3 224.3 76.7 224.7 92 226C107.3 227.3 122.7 229.7 138 229.8C153.3 230 168.7 228 184 227.5C199.3 227 214.7 228 230 227.5C245.3 227 260.7 225 276 224C291.3 223 306.7 223 322 221.5C337.3 220 352.7 217 368 215C383.3 213 398.7 212 414 214.2C429.3 216.3 444.7 221.7 460 226.5C475.3 231.3 490.7 235.7 506 235C521.3 234.3 536.7 228.7 552 224C567.3 219.3 582.7 215.7 598 216.3C613.3 217 628.7 222 644 222.3C659.3 222.7 674.7 218.3 690 216.2C705.3 214 720.7 214 736 217.5C751.3 221 766.7 228 782 232.2C797.3 236.3 812.7 237.7 828 235.2C843.3 232.7 858.7 226.3 874 221.8C889.3 217.3 904.7 214.7 912.3 213.3L920 212L920 301L912.3 301C904.7 301 889.3 301 874 301C858.7 301 843.3 301 828 301C812.7 301 797.3 301 782 301C766.7 301 751.3 301 736 301C720.7 301 705.3 301 690 301C674.7 301 659.3 301 644 301C628.7 301 613.3 301 598 301C582.7 301 567.3 301 552 301C536.7 301 521.3 301 506 301C490.7 301 475.3 301 460 301C444.7 301 429.3 301 414 301C398.7 301 383.3 301 368 301C352.7 301 337.3 301 322 301C306.7 301 291.3 301 276 301C260.7 301 245.3 301 230 301C214.7 301 199.3 301 184 301C168.7 301 153.3 301 138 301C122.7 301 107.3 301 92 301C76.7 301 61.3 301 46 301C30.7 301 15.3 301 7.7 301L0 301Z" fill="#ec0077"></path><path d="M0 235L7.7 237C15.3 239 30.7 243 46 244.5C61.3 246 76.7 245 92 243.3C107.3 241.7 122.7 239.3 138 239.3C153.3 239.3 168.7 241.7 184 243C199.3 244.3 214.7 244.7 230 245.3C245.3 246 260.7 247 276 247.7C291.3 248.3 306.7 248.7 322 251.3C337.3 254 352.7 259 368 256.3C383.3 253.7 398.7 243.3 414 241.3C429.3 239.3 444.7 245.7 460 248.5C475.3 251.3 490.7 250.7 506 249.5C521.3 248.3 536.7 246.7 552 248.8C567.3 251 582.7 257 598 259.5C613.3 262 628.7 261 644 256.7C659.3 252.3 674.7 244.7 690 242.7C705.3 240.7 720.7 244.3 736 245.5C751.3 246.7 766.7 245.3 782 246.3C797.3 247.3 812.7 250.7 828 252C843.3 253.3 858.7 252.7 874 249.5C889.3 246.3 904.7 240.7 912.3 237.8L920 235L920 301L912.3 301C904.7 301 889.3 301 874 301C858.7 301 843.3 301 828 301C812.7 301 797.3 301 782 301C766.7 301 751.3 301 736 301C720.7 301 705.3 301 690 301C674.7 301 659.3 301 644 301C628.7 301 613.3 301 598 301C582.7 301 567.3 301 552 301C536.7 301 521.3 301 506 301C490.7 301 475.3 301 460 301C444.7 301 429.3 301 414 301C398.7 301 383.3 301 368 301C352.7 301 337.3 301 322 301C306.7 301 291.3 301 276 301C260.7 301 245.3 301 230 301C214.7 301 199.3 301 184 301C168.7 301 153.3 301 138 301C122.7 301 107.3 301 92 301C76.7 301 61.3 301 46 301C30.7 301 15.3 301 7.7 301L0 301Z" fill="#bb199e"></path><path d="M0 272L7.7 271.2C15.3 270.3 30.7 268.7 46 269.5C61.3 270.3 76.7 273.7 92 275.2C107.3 276.7 122.7 276.3 138 273C153.3 269.7 168.7 263.3 184 265.7C199.3 268 214.7 279 230 281.5C245.3 284 260.7 278 276 275.8C291.3 273.7 306.7 275.3 322 277C337.3 278.7 352.7 280.3 368 278.8C383.3 277.3 398.7 272.7 414 271.5C429.3 270.3 444.7 272.7 460 271.2C475.3 269.7 490.7 264.3 506 263.2C521.3 262 536.7 265 552 268.2C567.3 271.3 582.7 274.7 598 273.2C613.3 271.7 628.7 265.3 644 263.5C659.3 261.7 674.7 264.3 690 264.3C705.3 264.3 720.7 261.7 736 263.3C751.3 265 766.7 271 782 271.2C797.3 271.3 812.7 265.7 828 267.7C843.3 269.7 858.7 279.3 874 282.3C889.3 285.3 904.7 281.7 912.3 279.8L920 278L920 301L912.3 301C904.7 301 889.3 301 874 301C858.7 301 843.3 301 828 301C812.7 301 797.3 301 782 301C766.7 301 751.3 301 736 301C720.7 301 705.3 301 690 301C674.7 301 659.3 301 644 301C628.7 301 613.3 301 598 301C582.7 301 567.3 301 552 301C536.7 301 521.3 301 506 301C490.7 301 475.3 301 460 301C444.7 301 429.3 301 414 301C398.7 301 383.3 301 368 301C352.7 301 337.3 301 322 301C306.7 301 291.3 301 276 301C260.7 301 245.3 301 230 301C214.7 301 199.3 301 184 301C168.7 301 153.3 301 138 301C122.7 301 107.3 301 92 301C76.7 301 61.3 301 46 301C30.7 301 15.3 301 7.7 301L0 301Z" fill="#673ab7"></path></svg>