<svg id="visual" viewBox="0 0 900 300" width="900" height="300" xmlns="http://www.w3.org/2000/svg" xmlns:xlink="http://www.w3.org/1999/xlink" version="1.1"><rect x="0" y="0" width="900" height="300" fill="#303030"></rect><path d="M0 183L6.5 181.7C13 180.3 26 177.7 39 176.5C52 175.3 65 175.7 78 178.7C91 181.7 104 187.3 117.2 188.2C130.3 189 143.7 185 156.8 183.5C170 182 183 183 196 179.8C209 176.7 222 169.3 235 169C248 168.7 261 175.3 274 178.7C287 182 300 182 313 184.5C326 187 339 192 352 193.8C365 195.7 378 194.3 391 192.2C404 190 417 187 430.2 183.8C443.3 180.7 456.7 177.3 469.8 178.8C483 180.3 496 186.7 509 185C522 183.3 535 173.7 548 171.8C561 170 574 176 587 181.3C600 186.7 613 191.3 626 190.8C639 190.3 652 184.7 665 180.2C678 175.7 691 172.3 704 171.8C717 171.3 730 173.7 743.2 174.3C756.3 175 769.7 174 782.8 174C796 174 809 175 822 177.2C835 179.3 848 182.7 861 181.2C874 179.7 887 173.3 893.5 170.2L900 167L900 301L893.5 301C887 301 874 301 861 301C848 301 835 301 822 301C809 301 796 301 782.8 301C769.7 301 756.3 301 743.2 301C730 301 717 301 704 301C691 301 678 301 665 301C652 301 639 301 626 301C613 301 600 301 587 301C574 301 561 301 548 301C535 301 522 301 509 301C496 301 483 301 469.8 301C456.7 301 443.3 301 430.2 301C417 301 404 301 391 301C378 301 365 301 352 301C339 301 326 301 313 301C300 301 287 301 274 301C261 301 248 301 235 301C222 301 209 301 196 301C183 301 170 301 156.8 301C143.7 301 130.3 301 117.2 301C104 301 91 301 78 301C65 301 52 301 39 301C26 301 13 301 6.5 301L0 301Z" fill="#d1f3f4"></path><path d="M0 202L6.5 201.5C13 201 26 200 39 198.5C52 197 65 195 78 195.5C91 196 104 199 117.2 202C130.3 205 143.7 208 156.8 210.8C170 213.7 183 216.3 196 216.5C209 216.7 222 214.3 235 214.3C248 214.3 261 216.7 274 216.7C287 216.7 300 214.3 313 212.2C326 210 339 208 352 208.5C365 209 378 212 391 208.8C404 205.7 417 196.3 430.2 193C443.3 189.7 456.7 192.3 469.8 195.3C483 198.3 496 201.7 509 202C522 202.3 535 199.7 548 200.3C561 201 574 205 587 205.8C600 206.7 613 204.3 626 204.2C639 204 652 206 665 207.8C678 209.7 691 211.3 704 211.2C717 211 730 209 743.2 208.8C756.3 208.7 769.7 210.3 782.8 208.2C796 206 809 200 822 197.8C835 195.7 848 197.3 861 200.3C874 203.3 887 207.7 893.5 209.8L900 212L900 301L893.5 301C887 301 874 301 861 301C848 301 835 301 822 301C809 301 796 301 782.8 301C769.7 301 756.3 301 743.2 301C730 301 717 301 704 301C691 301 678 301 665 301C652 301 639 301 626 301C613 301 600 301 587 301C574 301 561 301 548 301C535 301 522 301 509 301C496 301 483 301 469.8 301C456.7 301 443.3 301 430.2 301C417 301 404 301 391 301C378 301 365 301 352 301C339 301 326 301 313 301C300 301 287 301 274 301C261 301 248 301 235 301C222 301 209 301 196 301C183 301 170 301 156.8 301C143.7 301 130.3 301 117.2 301C104 301 91 301 78 301C65 301 52 301 39 301C26 301 13 301 6.5 301L0 301Z" fill="#74c6e0"></path><path d="M0 229L6.5 228.5C13 228 26 227 39 225C52 223 65 220 78 219C91 218 104 219 117.2 221.2C130.3 223.3 143.7 226.7 156.8 229.7C170 232.7 183 235.3 196 232.3C209 229.3 222 220.7 235 219.7C248 218.7 261 225.3 274 225.3C287 225.3 300 218.7 313 215.2C326 211.7 339 211.3 352 214C365 216.7 378 222.3 391 225.5C404 228.7 417 229.3 430.2 228.7C443.3 228 456.7 226 469.8 225.2C483 224.3 496 224.7 509 225.3C522 226 535 227 548 224.7C561 222.3 574 216.7 587 214.5C600 212.3 613 213.7 626 217.3C639 221 652 227 665 228C678 229 691 225 704 223.5C717 222 730 223 743.2 222C756.3 221 769.7 218 782.8 219.5C796 221 809 227 822 229.3C835 231.7 848 230.3 861 227.5C874 224.7 887 220.3 893.5 218.2L900 216L900 301L893.5 301C887 301 874 301 861 301C848 301 835 301 822 301C809 301 796 301 782.8 301C769.7 301 756.3 301 743.2 301C730 301 717 301 704 301C691 301 678 301 665 301C652 301 639 301 626 301C613 301 600 301 587 301C574 301 561 301 548 301C535 301 522 301 509 301C496 301 483 301 469.8 301C456.7 301 443.3 301 430.2 301C417 301 404 301 391 301C378 301 365 301 352 301C339 301 326 301 313 301C300 301 287 301 274 301C261 301 248 301 235 301C222 301 209 301 196 301C183 301 170 301 156.8 301C143.7 301 130.3 301 117.2 301C104 301 91 301 78 301C65 301 52 301 39 301C26 301 13 301 6.5 301L0 301Z" fill="#0093d5"></path><path d="M0 245L6.5 245.8C13 246.7 26 248.3 39 248.8C52 249.3 65 248.7 78 250C91 251.3 104 254.7 117.2 255C130.3 255.3 143.7 252.7 156.8 250.2C170 247.7 183 245.3 196 245C209 244.7 222 246.3 235 245.3C248 244.3 261 240.7 274 238.5C287 236.3 300 235.7 313 236.8C326 238 339 241 352 241C365 241 378 238 391 238.5C404 239 417 243 430.2 245.7C443.3 248.3 456.7 249.7 469.8 249.7C483 249.7 496 248.3 509 247.7C522 247 535 247 548 246C561 245 574 243 587 241.7C600 240.3 613 239.7 626 240.3C639 241 652 243 665 246.5C678 250 691 255 704 253.8C717 252.7 730 245.3 743.2 241.3C756.3 237.3 769.7 236.7 782.8 241C796 245.3 809 254.7 822 258.8C835 263 848 262 861 259.3C874 256.7 887 252.3 893.5 250.2L900 248L900 301L893.5 301C887 301 874 301 861 301C848 301 835 301 822 301C809 301 796 301 782.8 301C769.7 301 756.3 301 743.2 301C730 301 717 301 704 301C691 301 678 301 665 301C652 301 639 301 626 301C613 301 600 301 587 301C574 301 561 301 548 301C535 301 522 301 509 301C496 301 483 301 469.8 301C456.7 301 443.3 301 430.2 301C417 301 404 301 391 301C378 301 365 301 352 301C339 301 326 301 313 301C300 301 287 301 274 301C261 301 248 301 235 301C222 301 209 301 196 301C183 301 170 301 156.8 301C143.7 301 130.3 301 117.2 301C104 301 91 301 78 301C65 301 52 301 39 301C26 301 13 301 6.5 301L0 301Z" fill="#005abd"></path><path d="M0 260L6.5 262C13 264 26 268 39 270.5C52 273 65 274 78 274.2C91 274.3 104 273.7 117.2 272C130.3 270.3 143.7 267.7 156.8 268.3C170 269 183 273 196 272.2C209 271.3 222 265.7 235 265C248 264.3 261 268.7 274 269.3C287 270 300 267 313 267.3C326 267.7 339 271.3 352 274.5C365 277.7 378 280.3 391 279.3C404 278.3 417 273.7 430.2 271C443.3 268.3 456.7 267.7 469.8 267.2C483 266.7 496 266.3 509 268.2C522 270 535 274 548 275.5C561 277 574 276 587 273.3C600 270.7 613 266.3 626 266.2C639 266 652 270 665 271.8C678 273.7 691 273.3 704 272.5C717 271.7 730 270.3 743.2 271.7C756.3 273 769.7 277 782.8 278.5C796 280 809 279 822 279.5C835 280 848 282 861 283.7C874 285.3 887 286.7 893.5 287.3L900 288L900 301L893.5 301C887 301 874 301 861 301C848 301 835 301 822 301C809 301 796 301 782.8 301C769.7 301 756.3 301 743.2 301C730 301 717 301 704 301C691 301 678 301 665 301C652 301 639 301 626 301C613 301 600 301 587 301C574 301 561 301 548 301C535 301 522 301 509 301C496 301 483 301 469.8 301C456.7 301 443.3 301 430.2 301C417 301 404 301 391 301C378 301 365 301 352 301C339 301 326 301 313 301C300 301 287 301 274 301C261 301 248 301 235 301C222 301 209 301 196 301C183 301 170 301 156.8 301C143.7 301 130.3 301 117.2 301C104 301 91 301 78 301C65 301 52 301 39 301C26 301 13 301 6.5 301L0 301Z" fill="#4a0489"></path></svg>