<svg id="visual" viewBox="0 0 960 300" width="960" height="300" xmlns="http://www.w3.org/2000/svg" xmlns:xlink="http://www.w3.org/1999/xlink" version="1.1"><rect x="0" y="0" width="960" height="300" fill="#303030"></rect><path d="M0 198L8.8 197.2C17.7 196.3 35.3 194.7 53.2 193.5C71 192.3 89 191.7 106.8 189.8C124.7 188 142.3 185 160 185.3C177.7 185.7 195.3 189.3 213.2 191.7C231 194 249 195 266.8 192.5C284.7 190 302.3 184 320 183.5C337.7 183 355.3 188 373.2 188.5C391 189 409 185 426.8 187.3C444.7 189.7 462.3 198.3 480 200.3C497.7 202.3 515.3 197.7 533.2 196C551 194.3 569 195.7 586.8 195.7C604.7 195.7 622.3 194.3 640 195.3C657.7 196.3 675.3 199.7 693.2 198.2C711 196.7 729 190.3 746.8 189.8C764.7 189.3 782.3 194.7 800 197.3C817.7 200 835.3 200 853.2 200.8C871 201.7 889 203.3 906.8 204.3C924.7 205.3 942.3 205.7 951.2 205.8L960 206L960 301L951.2 301C942.3 301 924.7 301 906.8 301C889 301 871 301 853.2 301C835.3 301 817.7 301 800 301C782.3 301 764.7 301 746.8 301C729 301 711 301 693.2 301C675.3 301 657.7 301 640 301C622.3 301 604.7 301 586.8 301C569 301 551 301 533.2 301C515.3 301 497.7 301 480 301C462.3 301 444.7 301 426.8 301C409 301 391 301 373.2 301C355.3 301 337.7 301 320 301C302.3 301 284.7 301 266.8 301C249 301 231 301 213.2 301C195.3 301 177.7 301 160 301C142.3 301 124.7 301 106.8 301C89 301 71 301 53.2 301C35.3 301 17.7 301 8.8 301L0 301Z" fill="#d1f3f4"></path><path d="M0 207L8.8 206.8C17.7 206.7 35.3 206.3 53.2 207.7C71 209 89 212 106.8 211.2C124.7 210.3 142.3 205.7 160 207C177.7 208.3 195.3 215.7 213.2 213.2C231 210.7 249 198.3 266.8 193.5C284.7 188.7 302.3 191.3 320 194.7C337.7 198 355.3 202 373.2 202.7C391 203.3 409 200.7 426.8 198.2C444.7 195.7 462.3 193.3 480 194C497.7 194.7 515.3 198.3 533.2 200.2C551 202 569 202 586.8 204C604.7 206 622.3 210 640 208C657.7 206 675.3 198 693.2 197.2C711 196.3 729 202.7 746.8 206C764.7 209.3 782.3 209.7 800 208.3C817.7 207 835.3 204 853.2 200.3C871 196.7 889 192.3 906.8 189.3C924.7 186.3 942.3 184.7 951.2 183.8L960 183L960 301L951.2 301C942.3 301 924.7 301 906.8 301C889 301 871 301 853.2 301C835.3 301 817.7 301 800 301C782.3 301 764.7 301 746.8 301C729 301 711 301 693.2 301C675.3 301 657.7 301 640 301C622.3 301 604.7 301 586.8 301C569 301 551 301 533.2 301C515.3 301 497.7 301 480 301C462.3 301 444.7 301 426.8 301C409 301 391 301 373.2 301C355.3 301 337.7 301 320 301C302.3 301 284.7 301 266.8 301C249 301 231 301 213.2 301C195.3 301 177.7 301 160 301C142.3 301 124.7 301 106.8 301C89 301 71 301 53.2 301C35.3 301 17.7 301 8.8 301L0 301Z" fill="#ace4ed"></path><path d="M0 226L8.8 226.3C17.7 226.7 35.3 227.3 53.2 224.2C71 221 89 214 106.8 209.7C124.7 205.3 142.3 203.7 160 202C177.7 200.3 195.3 198.7 213.2 201.7C231 204.7 249 212.3 266.8 212.3C284.7 212.3 302.3 204.7 320 201C337.7 197.3 355.3 197.7 373.2 198.8C391 200 409 202 426.8 204.5C444.7 207 462.3 210 480 213.3C497.7 216.7 515.3 220.3 533.2 221.5C551 222.7 569 221.3 586.8 217.8C604.7 214.3 622.3 208.7 640 204.7C657.7 200.7 675.3 198.3 693.2 202.3C711 206.3 729 216.7 746.8 216.7C764.7 216.7 782.3 206.3 800 204C817.7 201.7 835.3 207.3 853.2 211C871 214.7 889 216.3 906.8 216.3C924.7 216.3 942.3 214.7 951.2 213.8L960 213L960 301L951.2 301C942.3 301 924.7 301 906.8 301C889 301 871 301 853.2 301C835.3 301 817.7 301 800 301C782.3 301 764.7 301 746.8 301C729 301 711 301 693.2 301C675.3 301 657.7 301 640 301C622.3 301 604.7 301 586.8 301C569 301 551 301 533.2 301C515.3 301 497.7 301 480 301C462.3 301 444.7 301 426.8 301C409 301 391 301 373.2 301C355.3 301 337.7 301 320 301C302.3 301 284.7 301 266.8 301C249 301 231 301 213.2 301C195.3 301 177.7 301 160 301C142.3 301 124.7 301 106.8 301C89 301 71 301 53.2 301C35.3 301 17.7 301 8.8 301L0 301Z" fill="#87d4ea"></path><path d="M0 230L8.8 230.3C17.7 230.7 35.3 231.3 53.2 228.5C71 225.7 89 219.3 106.8 220.3C124.7 221.3 142.3 229.7 160 233.2C177.7 236.7 195.3 235.3 213.2 231C231 226.7 249 219.3 266.8 219.2C284.7 219 302.3 226 320 229.8C337.7 233.7 355.3 234.3 373.2 233.2C391 232 409 229 426.8 225.8C444.7 222.7 462.3 219.3 480 219.7C497.7 220 515.3 224 533.2 225.5C551 227 569 226 586.8 226.3C604.7 226.7 622.3 228.3 640 230.3C657.7 232.3 675.3 234.7 693.2 235C711 235.3 729 233.7 746.8 232.5C764.7 231.3 782.3 230.7 800 228.3C817.7 226 835.3 222 853.2 219.8C871 217.7 889 217.3 906.8 220.7C924.7 224 942.3 231 951.2 234.5L960 238L960 301L951.2 301C942.3 301 924.7 301 906.8 301C889 301 871 301 853.2 301C835.3 301 817.7 301 800 301C782.3 301 764.7 301 746.8 301C729 301 711 301 693.2 301C675.3 301 657.7 301 640 301C622.3 301 604.7 301 586.8 301C569 301 551 301 533.2 301C515.3 301 497.7 301 480 301C462.3 301 444.7 301 426.8 301C409 301 391 301 373.2 301C355.3 301 337.7 301 320 301C302.3 301 284.7 301 266.8 301C249 301 231 301 213.2 301C195.3 301 177.7 301 160 301C142.3 301 124.7 301 106.8 301C89 301 71 301 53.2 301C35.3 301 17.7 301 8.8 301L0 301Z" fill="#62c3ea"></path><path d="M0 247L8.8 242.5C17.7 238 35.3 229 53.2 226.2C71 223.3 89 226.7 106.8 226.8C124.7 227 142.3 224 160 223.5C177.7 223 195.3 225 213.2 228.8C231 232.7 249 238.3 266.8 241.8C284.7 245.3 302.3 246.7 320 245.7C337.7 244.7 355.3 241.3 373.2 241.3C391 241.3 409 244.7 426.8 246.5C444.7 248.3 462.3 248.7 480 244.8C497.7 241 515.3 233 533.2 232.2C551 231.3 569 237.7 586.8 241.5C604.7 245.3 622.3 246.7 640 246.7C657.7 246.7 675.3 245.3 693.2 243.7C711 242 729 240 746.8 236.2C764.7 232.3 782.3 226.7 800 225.5C817.7 224.3 835.3 227.7 853.2 227.5C871 227.3 889 223.7 906.8 221.8C924.7 220 942.3 220 951.2 220L960 220L960 301L951.2 301C942.3 301 924.7 301 906.8 301C889 301 871 301 853.2 301C835.3 301 817.7 301 800 301C782.3 301 764.7 301 746.8 301C729 301 711 301 693.2 301C675.3 301 657.7 301 640 301C622.3 301 604.7 301 586.8 301C569 301 551 301 533.2 301C515.3 301 497.7 301 480 301C462.3 301 444.7 301 426.8 301C409 301 391 301 373.2 301C355.3 301 337.7 301 320 301C302.3 301 284.7 301 266.8 301C249 301 231 301 213.2 301C195.3 301 177.7 301 160 301C142.3 301 124.7 301 106.8 301C89 301 71 301 53.2 301C35.3 301 17.7 301 8.8 301L0 301Z" fill="#3bb1e9"></path><path d="M0 238L8.8 237.2C17.7 236.3 35.3 234.7 53.2 237C71 239.3 89 245.7 106.8 248C124.7 250.3 142.3 248.7 160 248C177.7 247.3 195.3 247.7 213.2 246.7C231 245.7 249 243.3 266.8 243.2C284.7 243 302.3 245 320 247C337.7 249 355.3 251 373.2 251.2C391 251.3 409 249.7 426.8 246.3C444.7 243 462.3 238 480 239C497.7 240 515.3 247 533.2 247.5C551 248 569 242 586.8 238.3C604.7 234.7 622.3 233.3 640 234.5C657.7 235.7 675.3 239.3 693.2 240C711 240.7 729 238.3 746.8 240.3C764.7 242.3 782.3 248.7 800 249.8C817.7 251 835.3 247 853.2 247C871 247 889 251 906.8 251.5C924.7 252 942.3 249 951.2 247.5L960 246L960 301L951.2 301C942.3 301 924.7 301 906.8 301C889 301 871 301 853.2 301C835.3 301 817.7 301 800 301C782.3 301 764.7 301 746.8 301C729 301 711 301 693.2 301C675.3 301 657.7 301 640 301C622.3 301 604.7 301 586.8 301C569 301 551 301 533.2 301C515.3 301 497.7 301 480 301C462.3 301 444.7 301 426.8 301C409 301 391 301 373.2 301C355.3 301 337.7 301 320 301C302.3 301 284.7 301 266.8 301C249 301 231 301 213.2 301C195.3 301 177.7 301 160 301C142.3 301 124.7 301 106.8 301C89 301 71 301 53.2 301C35.3 301 17.7 301 8.8 301L0 301Z" fill="#0f9ee8"></path><path d="M0 260L8.8 257.5C17.7 255 35.3 250 53.2 249.2C71 248.3 89 251.7 106.8 254C124.7 256.3 142.3 257.7 160 255.8C177.7 254 195.3 249 213.2 247C231 245 249 246 266.8 249.5C284.7 253 302.3 259 320 261.5C337.7 264 355.3 263 373.2 261C391 259 409 256 426.8 255.3C444.7 254.7 462.3 256.3 480 257C497.7 257.7 515.3 257.3 533.2 257.2C551 257 569 257 586.8 254.7C604.7 252.3 622.3 247.7 640 246.7C657.7 245.7 675.3 248.3 693.2 251.3C711 254.3 729 257.7 746.8 257.3C764.7 257 782.3 253 800 252C817.7 251 835.3 253 853.2 254.7C871 256.3 889 257.7 906.8 257.2C924.7 256.7 942.3 254.3 951.2 253.2L960 252L960 301L951.2 301C942.3 301 924.7 301 906.8 301C889 301 871 301 853.2 301C835.3 301 817.7 301 800 301C782.3 301 764.7 301 746.8 301C729 301 711 301 693.2 301C675.3 301 657.7 301 640 301C622.3 301 604.7 301 586.8 301C569 301 551 301 533.2 301C515.3 301 497.7 301 480 301C462.3 301 444.7 301 426.8 301C409 301 391 301 373.2 301C355.3 301 337.7 301 320 301C302.3 301 284.7 301 266.8 301C249 301 231 301 213.2 301C195.3 301 177.7 301 160 301C142.3 301 124.7 301 106.8 301C89 301 71 301 53.2 301C35.3 301 17.7 301 8.8 301L0 301Z" fill="#0389e4"></path><path d="M0 264L8.8 263.3C17.7 262.7 35.3 261.3 53.2 261.8C71 262.3 89 264.7 106.8 265.3C124.7 266 142.3 265 160 263.3C177.7 261.7 195.3 259.3 213.2 260.7C231 262 249 267 266.8 267.7C284.7 268.3 302.3 264.7 320 264.5C337.7 264.3 355.3 267.7 373.2 268.5C391 269.3 409 267.7 426.8 265.3C444.7 263 462.3 260 480 260.5C497.7 261 515.3 265 533.2 265.3C551 265.7 569 262.3 586.8 261C604.7 259.7 622.3 260.3 640 262.7C657.7 265 675.3 269 693.2 268.2C711 267.3 729 261.7 746.8 259.5C764.7 257.3 782.3 258.7 800 261.7C817.7 264.7 835.3 269.3 853.2 271.3C871 273.3 889 272.7 906.8 271.7C924.7 270.7 942.3 269.3 951.2 268.7L960 268L960 301L951.2 301C942.3 301 924.7 301 906.8 301C889 301 871 301 853.2 301C835.3 301 817.7 301 800 301C782.3 301 764.7 301 746.8 301C729 301 711 301 693.2 301C675.3 301 657.7 301 640 301C622.3 301 604.7 301 586.8 301C569 301 551 301 533.2 301C515.3 301 497.7 301 480 301C462.3 301 444.7 301 426.8 301C409 301 391 301 373.2 301C355.3 301 337.7 301 320 301C302.3 301 284.7 301 266.8 301C249 301 231 301 213.2 301C195.3 301 177.7 301 160 301C142.3 301 124.7 301 106.8 301C89 301 71 301 53.2 301C35.3 301 17.7 301 8.8 301L0 301Z" fill="#2d73db"></path><path d="M0 276L8.8 274.8C17.7 273.7 35.3 271.3 53.2 270.8C71 270.3 89 271.7 106.8 271.7C124.7 271.7 142.3 270.3 160 272C177.7 273.7 195.3 278.3 213.2 280.3C231 282.3 249 281.7 266.8 281.2C284.7 280.7 302.3 280.3 320 278C337.7 275.7 355.3 271.3 373.2 270C391 268.7 409 270.3 426.8 270.3C444.7 270.3 462.3 268.7 480 269.2C497.7 269.7 515.3 272.3 533.2 272.3C551 272.3 569 269.7 586.8 269.5C604.7 269.3 622.3 271.7 640 273C657.7 274.3 675.3 274.7 693.2 275C711 275.3 729 275.7 746.8 274.5C764.7 273.3 782.3 270.7 800 271.7C817.7 272.7 835.3 277.3 853.2 278.7C871 280 889 278 906.8 275.8C924.7 273.7 942.3 271.3 951.2 270.2L960 269L960 301L951.2 301C942.3 301 924.7 301 906.8 301C889 301 871 301 853.2 301C835.3 301 817.7 301 800 301C782.3 301 764.7 301 746.8 301C729 301 711 301 693.2 301C675.3 301 657.7 301 640 301C622.3 301 604.7 301 586.8 301C569 301 551 301 533.2 301C515.3 301 497.7 301 480 301C462.3 301 444.7 301 426.8 301C409 301 391 301 373.2 301C355.3 301 337.7 301 320 301C302.3 301 284.7 301 266.8 301C249 301 231 301 213.2 301C195.3 301 177.7 301 160 301C142.3 301 124.7 301 106.8 301C89 301 71 301 53.2 301C35.3 301 17.7 301 8.8 301L0 301Z" fill="#4d59cc"></path><path d="M0 282L8.8 281.8C17.7 281.7 35.3 281.3 53.2 282.8C71 284.3 89 287.7 106.8 288.7C124.7 289.7 142.3 288.3 160 287.2C177.7 286 195.3 285 213.2 284.5C231 284 249 284 266.8 283.7C284.7 283.3 302.3 282.7 320 281.8C337.7 281 355.3 280 373.2 281.7C391 283.3 409 287.7 426.8 289.7C444.7 291.7 462.3 291.3 480 289.8C497.7 288.3 515.3 285.7 533.2 285.2C551 284.7 569 286.3 586.8 285.7C604.7 285 622.3 282 640 282.5C657.7 283 675.3 287 693.2 287.3C711 287.7 729 284.3 746.8 284C764.7 283.7 782.3 286.3 800 286.5C817.7 286.7 835.3 284.3 853.2 283.3C871 282.3 889 282.7 906.8 283C924.7 283.3 942.3 283.7 951.2 283.8L960 284L960 301L951.2 301C942.3 301 924.7 301 906.8 301C889 301 871 301 853.2 301C835.3 301 817.7 301 800 301C782.3 301 764.7 301 746.8 301C729 301 711 301 693.2 301C675.3 301 657.7 301 640 301C622.3 301 604.7 301 586.8 301C569 301 551 301 533.2 301C515.3 301 497.7 301 480 301C462.3 301 444.7 301 426.8 301C409 301 391 301 373.2 301C355.3 301 337.7 301 320 301C302.3 301 284.7 301 266.8 301C249 301 231 301 213.2 301C195.3 301 177.7 301 160 301C142.3 301 124.7 301 106.8 301C89 301 71 301 53.2 301C35.3 301 17.7 301 8.8 301L0 301Z" fill="#673ab7"></path></svg>