<svg id="visual" viewBox="0 0 920 300" width="920" height="300" xmlns="http://www.w3.org/2000/svg" xmlns:xlink="http://www.w3.org/1999/xlink" version="1.1"><rect x="0" y="0" width="920" height="300" fill="#303030"></rect><path d="M0 96L7.7 98C15.3 100 30.7 104 46 103.5C61.3 103 76.7 98 92 97.2C107.3 96.3 122.7 99.7 138 101.8C153.3 104 168.7 105 184 103.7C199.3 102.3 214.7 98.7 230 97C245.3 95.3 260.7 95.7 276 97C291.3 98.3 306.7 100.7 322 102.7C337.3 104.7 352.7 106.3 368 104.5C383.3 102.7 398.7 97.3 414 96.7C429.3 96 444.7 100 460 100.8C475.3 101.7 490.7 99.3 506 99.8C521.3 100.3 536.7 103.7 552 104.8C567.3 106 582.7 105 598 101.7C613.3 98.3 628.7 92.7 644 88.7C659.3 84.7 674.7 82.3 690 82C705.3 81.7 720.7 83.3 736 88.7C751.3 94 766.7 103 782 105.3C797.3 107.7 812.7 103.3 828 98.7C843.3 94 858.7 89 874 87.7C889.3 86.3 904.7 88.7 912.3 89.8L920 91L920 0L912.3 0C904.7 0 889.3 0 874 0C858.7 0 843.3 0 828 0C812.7 0 797.3 0 782 0C766.7 0 751.3 0 736 0C720.7 0 705.3 0 690 0C674.7 0 659.3 0 644 0C628.7 0 613.3 0 598 0C582.7 0 567.3 0 552 0C536.7 0 521.3 0 506 0C490.7 0 475.3 0 460 0C444.7 0 429.3 0 414 0C398.7 0 383.3 0 368 0C352.7 0 337.3 0 322 0C306.7 0 291.3 0 276 0C260.7 0 245.3 0 230 0C214.7 0 199.3 0 184 0C168.7 0 153.3 0 138 0C122.7 0 107.3 0 92 0C76.7 0 61.3 0 46 0C30.7 0 15.3 0 7.7 0L0 0Z" fill="#ff6f00"></path><path d="M0 57L7.7 57.2C15.3 57.3 30.7 57.7 46 57.8C61.3 58 76.7 58 92 61.8C107.3 65.7 122.7 73.3 138 78C153.3 82.7 168.7 84.3 184 83.2C199.3 82 214.7 78 230 76.8C245.3 75.7 260.7 77.3 276 79.2C291.3 81 306.7 83 322 81.7C337.3 80.3 352.7 75.7 368 72.8C383.3 70 398.7 69 414 68.8C429.3 68.7 444.7 69.3 460 71.2C475.3 73 490.7 76 506 77C521.3 78 536.7 77 552 77.5C567.3 78 582.7 80 598 79.2C613.3 78.3 628.7 74.7 644 70.5C659.3 66.3 674.7 61.7 690 61C705.3 60.3 720.7 63.7 736 68.3C751.3 73 766.7 79 782 79.3C797.3 79.7 812.7 74.3 828 70.7C843.3 67 858.7 65 874 63.7C889.3 62.3 904.7 61.7 912.3 61.3L920 61L920 0L912.3 0C904.7 0 889.3 0 874 0C858.7 0 843.3 0 828 0C812.7 0 797.3 0 782 0C766.7 0 751.3 0 736 0C720.7 0 705.3 0 690 0C674.7 0 659.3 0 644 0C628.7 0 613.3 0 598 0C582.7 0 567.3 0 552 0C536.7 0 521.3 0 506 0C490.7 0 475.3 0 460 0C444.7 0 429.3 0 414 0C398.7 0 383.3 0 368 0C352.7 0 337.3 0 322 0C306.7 0 291.3 0 276 0C260.7 0 245.3 0 230 0C214.7 0 199.3 0 184 0C168.7 0 153.3 0 138 0C122.7 0 107.3 0 92 0C76.7 0 61.3 0 46 0C30.7 0 15.3 0 7.7 0L0 0Z" fill="#fe2659"></path><path d="M0 57L7.7 54.2C15.3 51.3 30.7 45.7 46 41.2C61.3 36.7 76.7 33.3 92 32.8C107.3 32.3 122.7 34.7 138 36.5C153.3 38.3 168.7 39.7 184 42C199.3 44.3 214.7 47.7 230 48.8C245.3 50 260.7 49 276 50.8C291.3 52.7 306.7 57.3 322 57.3C337.3 57.3 352.7 52.7 368 49.3C383.3 46 398.7 44 414 42.2C429.3 40.3 444.7 38.7 460 40.3C475.3 42 490.7 47 506 51.5C521.3 56 536.7 60 552 60.5C567.3 61 582.7 58 598 53.5C613.3 49 628.7 43 644 41.3C659.3 39.7 674.7 42.3 690 44.8C705.3 47.3 720.7 49.7 736 47.7C751.3 45.7 766.7 39.3 782 40.5C797.3 41.7 812.7 50.3 828 50.2C843.3 50 858.7 41 874 37C889.3 33 904.7 34 912.3 34.5L920 35L920 0L912.3 0C904.7 0 889.3 0 874 0C858.7 0 843.3 0 828 0C812.7 0 797.3 0 782 0C766.7 0 751.3 0 736 0C720.7 0 705.3 0 690 0C674.7 0 659.3 0 644 0C628.7 0 613.3 0 598 0C582.7 0 567.3 0 552 0C536.7 0 521.3 0 506 0C490.7 0 475.3 0 460 0C444.7 0 429.3 0 414 0C398.7 0 383.3 0 368 0C352.7 0 337.3 0 322 0C306.7 0 291.3 0 276 0C260.7 0 245.3 0 230 0C214.7 0 199.3 0 184 0C168.7 0 153.3 0 138 0C122.7 0 107.3 0 92 0C76.7 0 61.3 0 46 0C30.7 0 15.3 0 7.7 0L0 0Z" fill="#ce0692"></path><path d="M0 8L7.7 8.2C15.3 8.3 30.7 8.7 46 11.5C61.3 14.3 76.7 19.7 92 22.7C107.3 25.7 122.7 26.3 138 25.3C153.3 24.3 168.7 21.7 184 19.3C199.3 17 214.7 15 230 14.2C245.3 13.3 260.7 13.7 276 14.3C291.3 15 306.7 16 322 15.8C337.3 15.7 352.7 14.3 368 14.8C383.3 15.3 398.7 17.7 414 17.7C429.3 17.7 444.7 15.3 460 16C475.3 16.7 490.7 20.3 506 22.7C521.3 25 536.7 26 552 25.7C567.3 25.3 582.7 23.7 598 21.5C613.3 19.3 628.7 16.7 644 19.3C659.3 22 674.7 30 690 28.7C705.3 27.3 720.7 16.7 736 12.2C751.3 7.7 766.7 9.3 782 13.2C797.3 17 812.7 23 828 24.5C843.3 26 858.7 23 874 19.5C889.3 16 904.7 12 912.3 10L920 8L920 0L912.3 0C904.7 0 889.3 0 874 0C858.7 0 843.3 0 828 0C812.7 0 797.3 0 782 0C766.7 0 751.3 0 736 0C720.7 0 705.3 0 690 0C674.7 0 659.3 0 644 0C628.7 0 613.3 0 598 0C582.7 0 567.3 0 552 0C536.7 0 521.3 0 506 0C490.7 0 475.3 0 460 0C444.7 0 429.3 0 414 0C398.7 0 383.3 0 368 0C352.7 0 337.3 0 322 0C306.7 0 291.3 0 276 0C260.7 0 245.3 0 230 0C214.7 0 199.3 0 184 0C168.7 0 153.3 0 138 0C122.7 0 107.3 0 92 0C76.7 0 61.3 0 46 0C30.7 0 15.3 0 7.7 0L0 0Z" fill="#673ab7"></path></svg>