<svg id="visual" viewBox="0 0 900 50" width="900" height="50" xmlns="http://www.w3.org/2000/svg" xmlns:xlink="http://www.w3.org/1999/xlink" version="1.1"><rect x="0" y="0" width="900" height="50" fill="#303030"></rect><path d="M0 29L6.5 28.2C13 27.3 26 25.7 39 27.7C52 29.7 65 35.3 78 35.5C91 35.7 104 30.3 117.2 30.2C130.3 30 143.7 35 156.8 35.3C170 35.7 183 31.3 196 29.2C209 27 222 27 235 26.5C248 26 261 25 274 24.3C287 23.7 300 23.3 313 25.3C326 27.3 339 31.7 352 33.7C365 35.7 378 35.3 391 34.2C404 33 417 31 430.2 31.8C443.3 32.7 456.7 36.3 469.8 36.7C483 37 496 34 509 32.7C522 31.3 535 31.7 548 31.2C561 30.7 574 29.3 587 31.5C600 33.7 613 39.3 626 41.8C639 44.3 652 43.7 665 41.2C678 38.7 691 34.3 704 33C717 31.7 730 33.3 743.2 32C756.3 30.7 769.7 26.3 782.8 26.5C796 26.7 809 31.3 822 31.3C835 31.3 848 26.7 861 24.3C874 22 887 22 893.5 22L900 22L900 0L893.5 0C887 0 874 0 861 0C848 0 835 0 822 0C809 0 796 0 782.8 0C769.7 0 756.3 0 743.2 0C730 0 717 0 704 0C691 0 678 0 665 0C652 0 639 0 626 0C613 0 600 0 587 0C574 0 561 0 548 0C535 0 522 0 509 0C496 0 483 0 469.8 0C456.7 0 443.3 0 430.2 0C417 0 404 0 391 0C378 0 365 0 352 0C339 0 326 0 313 0C300 0 287 0 274 0C261 0 248 0 235 0C222 0 209 0 196 0C183 0 170 0 156.8 0C143.7 0 130.3 0 117.2 0C104 0 91 0 78 0C65 0 52 0 39 0C26 0 13 0 6.5 0L0 0Z" fill="#d1f3f4"></path><path d="M0 28L6.5 28.2C13 28.3 26 28.7 39 29.2C52 29.7 65 30.3 78 30.8C91 31.3 104 31.7 117.2 29C130.3 26.3 143.7 20.7 156.8 19.8C170 19 183 23 196 24.2C209 25.3 222 23.7 235 24.5C248 25.3 261 28.7 274 28C287 27.3 300 22.7 313 20.3C326 18 339 18 352 17.5C365 17 378 16 391 16.3C404 16.7 417 18.3 430.2 20.8C443.3 23.3 456.7 26.7 469.8 29.2C483 31.7 496 33.3 509 32.8C522 32.3 535 29.7 548 30.2C561 30.7 574 34.3 587 34.5C600 34.7 613 31.3 626 28C639 24.7 652 21.3 665 19.5C678 17.7 691 17.3 704 18.8C717 20.3 730 23.7 743.2 26.8C756.3 30 769.7 33 782.8 33.5C796 34 809 32 822 29.3C835 26.7 848 23.3 861 21C874 18.7 887 17.3 893.5 16.7L900 16L900 0L893.5 0C887 0 874 0 861 0C848 0 835 0 822 0C809 0 796 0 782.8 0C769.7 0 756.3 0 743.2 0C730 0 717 0 704 0C691 0 678 0 665 0C652 0 639 0 626 0C613 0 600 0 587 0C574 0 561 0 548 0C535 0 522 0 509 0C496 0 483 0 469.8 0C456.7 0 443.3 0 430.2 0C417 0 404 0 391 0C378 0 365 0 352 0C339 0 326 0 313 0C300 0 287 0 274 0C261 0 248 0 235 0C222 0 209 0 196 0C183 0 170 0 156.8 0C143.7 0 130.3 0 117.2 0C104 0 91 0 78 0C65 0 52 0 39 0C26 0 13 0 6.5 0L0 0Z" fill="#74c6e0"></path><path d="M0 13L6.5 13.2C13 13.3 26 13.7 39 14.2C52 14.7 65 15.3 78 16.2C91 17 104 18 117.2 17.2C130.3 16.3 143.7 13.7 156.8 13.3C170 13 183 15 196 17.2C209 19.3 222 21.7 235 21C248 20.3 261 16.7 274 16.3C287 16 300 19 313 20.3C326 21.7 339 21.3 352 22.5C365 23.7 378 26.3 391 25.2C404 24 417 19 430.2 17C443.3 15 456.7 16 469.8 16.8C483 17.7 496 18.3 509 18.7C522 19 535 19 548 19.5C561 20 574 21 587 21.8C600 22.7 613 23.3 626 24.5C639 25.7 652 27.3 665 25.8C678 24.3 691 19.7 704 18.3C717 17 730 19 743.2 18.5C756.3 18 769.7 15 782.8 15.8C796 16.7 809 21.3 822 24.2C835 27 848 28 861 27.5C874 27 887 25 893.5 24L900 23L900 0L893.5 0C887 0 874 0 861 0C848 0 835 0 822 0C809 0 796 0 782.8 0C769.7 0 756.3 0 743.2 0C730 0 717 0 704 0C691 0 678 0 665 0C652 0 639 0 626 0C613 0 600 0 587 0C574 0 561 0 548 0C535 0 522 0 509 0C496 0 483 0 469.8 0C456.7 0 443.3 0 430.2 0C417 0 404 0 391 0C378 0 365 0 352 0C339 0 326 0 313 0C300 0 287 0 274 0C261 0 248 0 235 0C222 0 209 0 196 0C183 0 170 0 156.8 0C143.7 0 130.3 0 117.2 0C104 0 91 0 78 0C65 0 52 0 39 0C26 0 13 0 6.5 0L0 0Z" fill="#0093d5"></path><path d="M0 11L6.5 10.7C13 10.3 26 9.7 39 11.3C52 13 65 17 78 17.2C91 17.3 104 13.7 117.2 12.8C130.3 12 143.7 14 156.8 15.8C170 17.7 183 19.3 196 17.7C209 16 222 11 235 10.5C248 10 261 14 274 15.7C287 17.3 300 16.7 313 16.3C326 16 339 16 352 16C365 16 378 16 391 14.7C404 13.3 417 10.7 430.2 11.2C443.3 11.7 456.7 15.3 469.8 16.8C483 18.3 496 17.7 509 17C522 16.3 535 15.7 548 16C561 16.3 574 17.7 587 16.8C600 16 613 13 626 11.8C639 10.7 652 11.3 665 11.7C678 12 691 12 704 12.2C717 12.3 730 12.7 743.2 13.7C756.3 14.7 769.7 16.3 782.8 16.3C796 16.3 809 14.7 822 13C835 11.3 848 9.7 861 10.3C874 11 887 14 893.5 15.5L900 17L900 0L893.5 0C887 0 874 0 861 0C848 0 835 0 822 0C809 0 796 0 782.8 0C769.7 0 756.3 0 743.2 0C730 0 717 0 704 0C691 0 678 0 665 0C652 0 639 0 626 0C613 0 600 0 587 0C574 0 561 0 548 0C535 0 522 0 509 0C496 0 483 0 469.8 0C456.7 0 443.3 0 430.2 0C417 0 404 0 391 0C378 0 365 0 352 0C339 0 326 0 313 0C300 0 287 0 274 0C261 0 248 0 235 0C222 0 209 0 196 0C183 0 170 0 156.8 0C143.7 0 130.3 0 117.2 0C104 0 91 0 78 0C65 0 52 0 39 0C26 0 13 0 6.5 0L0 0Z" fill="#005abd"></path><path d="M0 10L6.5 10.2C13 10.3 26 10.7 39 10C52 9.3 65 7.7 78 6.7C91 5.7 104 5.3 117.2 5.7C130.3 6 143.7 7 156.8 8.5C170 10 183 12 196 12.2C209 12.3 222 10.7 235 10C248 9.3 261 9.7 274 9.8C287 10 300 10 313 9.3C326 8.7 339 7.3 352 7C365 6.7 378 7.3 391 6.5C404 5.7 417 3.3 430.2 4C443.3 4.7 456.7 8.3 469.8 9.3C483 10.3 496 8.7 509 7.8C522 7 535 7 548 6.5C561 6 574 5 587 4.5C600 4 613 4 626 5.3C639 6.7 652 9.3 665 10C678 10.7 691 9.3 704 9.5C717 9.7 730 11.3 743.2 11.5C756.3 11.7 769.7 10.3 782.8 9.3C796 8.3 809 7.7 822 6.7C835 5.7 848 4.3 861 3.8C874 3.3 887 3.7 893.5 3.8L900 4L900 0L893.5 0C887 0 874 0 861 0C848 0 835 0 822 0C809 0 796 0 782.8 0C769.7 0 756.3 0 743.2 0C730 0 717 0 704 0C691 0 678 0 665 0C652 0 639 0 626 0C613 0 600 0 587 0C574 0 561 0 548 0C535 0 522 0 509 0C496 0 483 0 469.8 0C456.7 0 443.3 0 430.2 0C417 0 404 0 391 0C378 0 365 0 352 0C339 0 326 0 313 0C300 0 287 0 274 0C261 0 248 0 235 0C222 0 209 0 196 0C183 0 170 0 156.8 0C143.7 0 130.3 0 117.2 0C104 0 91 0 78 0C65 0 52 0 39 0C26 0 13 0 6.5 0L0 0Z" fill="#4a0489"></path></svg>