<svg id="visual" viewBox="0 0 900 300" width="900" height="300" xmlns="http://www.w3.org/2000/svg" xmlns:xlink="http://www.w3.org/1999/xlink" version="1.1"><rect x="0" y="0" width="900" height="300" fill="#303030"></rect><path d="M0 216L12.5 214C25 212 50 208 75 206.8C100 205.7 125 207.3 150 205.5C175 203.7 200 198.3 225 195.5C250 192.7 275 192.3 300 192.2C325 192 350 192 375 190.8C400 189.7 425 187.3 450 184.3C475 181.3 500 177.7 525 175.8C550 174 575 174 600 174.2C625 174.3 650 174.7 675 177.2C700 179.7 725 184.3 750 186.3C775 188.3 800 187.7 825 191.8C850 196 875 205 887.5 209.5L900 214L900 301L887.5 301C875 301 850 301 825 301C800 301 775 301 750 301C725 301 700 301 675 301C650 301 625 301 600 301C575 301 550 301 525 301C500 301 475 301 450 301C425 301 400 301 375 301C350 301 325 301 300 301C275 301 250 301 225 301C200 301 175 301 150 301C125 301 100 301 75 301C50 301 25 301 12.5 301L0 301Z" fill="#d1f3f4"></path><path d="M0 209L12.5 208.3C25 207.7 50 206.3 75 209.2C100 212 125 219 150 217.3C175 215.7 200 205.3 225 201.5C250 197.7 275 200.3 300 202.5C325 204.7 350 206.3 375 209.2C400 212 425 216 450 213.3C475 210.7 500 201.3 525 202.3C550 203.3 575 214.7 600 217.2C625 219.7 650 213.3 675 211.2C700 209 725 211 750 213.8C775 216.7 800 220.3 825 222.2C850 224 875 224 887.5 224L900 224L900 301L887.5 301C875 301 850 301 825 301C800 301 775 301 750 301C725 301 700 301 675 301C650 301 625 301 600 301C575 301 550 301 525 301C500 301 475 301 450 301C425 301 400 301 375 301C350 301 325 301 300 301C275 301 250 301 225 301C200 301 175 301 150 301C125 301 100 301 75 301C50 301 25 301 12.5 301L0 301Z" fill="#87cfe3"></path><path d="M0 240L12.5 240C25 240 50 240 75 235.5C100 231 125 222 150 221.5C175 221 200 229 225 230.5C250 232 275 227 300 226.7C325 226.3 350 230.7 375 230.7C400 230.7 425 226.3 450 226.7C475 227 500 232 525 230.2C550 228.3 575 219.7 600 218C625 216.3 650 221.7 675 224C700 226.3 725 225.7 750 223.7C775 221.7 800 218.3 825 220C850 221.7 875 228.3 887.5 231.7L900 235L900 301L887.5 301C875 301 850 301 825 301C800 301 775 301 750 301C725 301 700 301 675 301C650 301 625 301 600 301C575 301 550 301 525 301C500 301 475 301 450 301C425 301 400 301 375 301C350 301 325 301 300 301C275 301 250 301 225 301C200 301 175 301 150 301C125 301 100 301 75 301C50 301 25 301 12.5 301L0 301Z" fill="#3aa8da"></path><path d="M0 242L12.5 242.3C25 242.7 50 243.3 75 241.5C100 239.7 125 235.3 150 233.7C175 232 200 233 225 236C250 239 275 244 300 244.7C325 245.3 350 241.7 375 242.7C400 243.7 425 249.3 450 249C475 248.7 500 242.3 525 239.2C550 236 575 236 600 235.5C625 235 650 234 675 236C700 238 725 243 750 242.8C775 242.7 800 237.3 825 239.5C850 241.7 875 251.3 887.5 256.2L900 261L900 301L887.5 301C875 301 850 301 825 301C800 301 775 301 750 301C725 301 700 301 675 301C650 301 625 301 600 301C575 301 550 301 525 301C500 301 475 301 450 301C425 301 400 301 375 301C350 301 325 301 300 301C275 301 250 301 225 301C200 301 175 301 150 301C125 301 100 301 75 301C50 301 25 301 12.5 301L0 301Z" fill="#007dce"></path><path d="M0 257L12.5 259.3C25 261.7 50 266.3 75 267.7C100 269 125 267 150 264C175 261 200 257 225 254.3C250 251.7 275 250.3 300 253C325 255.7 350 262.3 375 263.5C400 264.7 425 260.3 450 261C475 261.7 500 267.3 525 267.8C550 268.3 575 263.7 600 263.3C625 263 650 267 675 265.3C700 263.7 725 256.3 750 256.8C775 257.3 800 265.7 825 268.5C850 271.3 875 268.7 887.5 267.3L900 266L900 301L887.5 301C875 301 850 301 825 301C800 301 775 301 750 301C725 301 700 301 675 301C650 301 625 301 600 301C575 301 550 301 525 301C500 301 475 301 450 301C425 301 400 301 375 301C350 301 325 301 300 301C275 301 250 301 225 301C200 301 175 301 150 301C125 301 100 301 75 301C50 301 25 301 12.5 301L0 301Z" fill="#174eb5"></path><path d="M0 288L12.5 286.7C25 285.3 50 282.7 75 281.7C100 280.7 125 281.3 150 280.5C175 279.7 200 277.3 225 276.3C250 275.3 275 275.7 300 276.7C325 277.7 350 279.3 375 279.7C400 280 425 279 450 277.2C475 275.3 500 272.7 525 273C550 273.3 575 276.7 600 278.3C625 280 650 280 675 280.7C700 281.3 725 282.7 750 281C775 279.3 800 274.7 825 272C850 269.3 875 268.7 887.5 268.3L900 268L900 301L887.5 301C875 301 850 301 825 301C800 301 775 301 750 301C725 301 700 301 675 301C650 301 625 301 600 301C575 301 550 301 525 301C500 301 475 301 450 301C425 301 400 301 375 301C350 301 325 301 300 301C275 301 250 301 225 301C200 301 175 301 150 301C125 301 100 301 75 301C50 301 25 301 12.5 301L0 301Z" fill="#4a0489"></path></svg>